<svg version="1" xmlns="http://www.w3.org/2000/svg" width="933.333" height="933.333" viewBox="0 0 700.000000 700.000000"><path d="M664.5 22c-7.1 2.1-21.3 6.1-31.5 9-10.2 2.8-27.9 7.9-39.5 11.2-11.5 3.3-21.4 6.1-22 6.2-2.1.5-11.4 3.1-48.5 13.6-103.8 29.4-120.3 34.1-121.2 34.6-.8.5 19.9 9.1 82.2 34.1 11.8 4.7 21.9 9 22.4 9.4.5.4-113 114.7-252.3 253.9L1 647.2v52.4h24.4l24.5-.1 254-254c139.8-139.7 254.2-254.1 254.4-254.2.1 0 4.7 11 10.1 24.5 5.5 13.6 15.2 37.7 21.6 53.6l11.7 28.9 1.6-4.9c.9-2.7 4.7-16.2 8.6-29.9 3.8-13.8 12.4-44.1 19-67.5 34.7-122.7 37.2-131.5 44.6-158 2.5-9.1 4.8-17.3 5.1-18.3.7-2.4-.9-2.2-16.1 2.3zM355.6 147.3c.3 1 .9 1.5 1.2 1.2.3-.3 0-1.1-.7-1.8-1-.9-1.1-.8-.5.6zM348.2 156.2c-1.5 1.5-1.5 2.8-.1 2.8.5 0 .8-.4.4-.9-.3-.6.3-1.4 1.2-2 1-.6 1.3-1.1.8-1.1-.6 0-1.6.5-2.3 1.2z"/><path d="M367 155.9c0 .6.4 1.2.8 1.5.5.3.9-.1.9-.9s-.4-1.5-.9-1.5c-.4 0-.8.4-.8.9zM353 158.9c-.8.6-1.9.7-2.5.4-.5-.3-.4 0 .3.8 1 1.1 1.5 1 2.9-.4 1.9-1.9 1.6-2.2-.7-.8zM363.3 159.5c0 .8.4 1.5.9 1.5.4 0 .8-.4.8-.9 0-.6-.4-1.2-.8-1.5-.5-.3-.9.1-.9.9zM344.5 160.1c-.4.6-.5 1.2-.2 1.5.2.3.7-.2 1-1.1.7-1.7.1-2-.8-.4zM375.6 159.8c-.3.5.1.9.9.9s1.2-.4.9-.9c-.3-.4-.7-.8-.9-.8-.2 0-.6.4-.9.8zM341.6 162.7c-.6 1.4-.5 1.5.5.6.7-.7 1-1.5.7-1.8-.3-.3-.9.2-1.2 1.2zM353.5 162.8c1.8 1.7 5.5 2.4 5.5 1.1 0-.7-.3-1-.6-.6-.3.3-1.8.1-3.3-.4-1.5-.6-2.2-.6-1.6-.1zM383.5 163.1c-.4.6-.5 1.2-.2 1.5.2.3.7-.2 1-1.1.7-1.7.1-2-.8-.4zM345 164c0 1.2 3.5 3.1 4.4 2.3.3-.3.6.4.6 1.7 0 2.2-.1 2.3-2 .5-1.1-1-2-1.4-2-.9-.1.5-.7-.2-1.5-1.6-.8-1.4-1.4-2-1.5-1.4 0 .5.7 1.9 1.5 3 .8 1 1.5 1.5 1.5 1.1 0-.4.6-.2 1.4.5.8.7 1.1 1.7.8 2.3-.3.5.2.4 1.2-.4 1.9-1.6 1.8-5.5-.1-5.7-.7-.1-1.8-.2-2.4-.3-.5 0-.7-.6-.4-1.1.3-.6.1-1-.4-1-.6 0-1.1.4-1.1 1zM351.6 165.3c.3 1 .9 1.5 1.2 1.2.3-.3 0-1.1-.7-1.8-1-.9-1.1-.8-.5.6z"/><path d="M340.6 165.9c-.4.6-1.2.9-1.7.6-.5-.3-.6.2-.2 1.1.4 1.2.3 1.5-.5 1s-1-.2-.6.9c.4 1 .2 1.4-.7 1-.9-.3-3.4 1.9-6.4 5.6-2.7 3.4-5.6 6.9-6.5 7.7-1.4 1.4-1.3 1.5.5.8 1.1-.4 1.6-.4 1.2 0-.4.5.3 1.4 1.5 2.1 1.3.7 1.7 1.2 1.1 1.3-2 0-1.5 1.6.5 1.7 1.1.1 1.7-.6 1.8-2.2.1-1.4-.1-2.4-.5-2.3-3.1.4-4-2.7-1.4-5.1 1.6-1.5 1.7-.7.2 2.2-.7 1.2-.8 1.9-.4 1.5.5-.4 1.4-.3 2.2.4.7.6 1.7.8 2.1.4.4-.4-.1-1.2-1-1.7-2-1.1-1.4-3.6.9-3.6 1.3 0 1.3.2-.3 1.4-1 .7-1.3 1.3-.8 1.3.6 0 1.5-.5 2.2-1.2.9-.9 1.1-.6.7 1.1-.3 1.7-.1 2 .8 1.4 1.7-1.3 4.2-.9 4 .5-.2.7.2 1.2.8 1.2.6 0 .8-.7.5-1.6-.3-.8.8-.2 2.5 1.6 2.7 2.7 2.9 3.3 1.8 4.8-1.3 1.6-1.2 1.6.6.2 1.9-1.4 1.9-1.4.6.2-.7 1-1.7 1.5-2.2 1.2-.5-.3-.9 0-.9.5 0 1.6 1 1.4 3.4-.7 2-1.6 2-1.6.6.2-1.1 1.5-1.1 1.8-.2 1.2 1.1-.7 1.2-.4.3 1.2-1.1 2.1-.9 2.4 2.1 3.5 1.2.4 1.5.2 1.2-.8-.3-.8-1.1-1.3-1.7-1.1-.7.1-.9.1-.4-.1.4-.3.5-.8.2-1.3-.3-.4.3-1.4 1.2-2.1 1.4-1.2 1.6-1.2.8 0-.5.9-.4 1.2.2.8.6-.4 1.8.5 2.8 1.9l1.6 2.5-2.7-1.7-2.7-1.8 1.4 2.4c1.6 3 1.8 6.2.4 7.3-.6.5-.3.7.8.3 1-.3 1.7 0 1.7.7s.3.8.8.2c1-1.4 3.5-1.8 2.7-.5-.4.6-.3 1 .2.9 2.1-.4 3.4.2 2.7 1.2-.5.8-.8.8-1.3 0-.5-.7-1.4-.4-2.9.9-2.2 2.1-3.1 4.7-1.2 3.5.5-.3.7 0 .4.9-.5 1.3-.9 1.2-2.7-.4-1.1-1.1-2.3-1.7-2.6-1.4-.3.3.5 1.5 1.8 2.5l2.4 2 3.4-3.6c1.8-1.9 3.3-3.2 3.3-2.8 0 .3 1.1-.4 2.5-1.7 1.3-1.2 2.2-2.7 1.9-3.2-.3-.5 0-.8.8-.6.7.2 2.6-.7 4.2-2 1.6-1.2 2.3-2.2 1.7-2.2-.7 0-1-.4-.6-1 .3-.5 1.2-.7 1.9-.4.7.3 1.9-.3 2.6-1.3 1.2-1.5 1.2-1.6 0-.6-2 1.8-3.5 1.6-2-.2.7-.8.9-1.5.5-1.5s-1.5 1-2.5 2.2c-1 1.3-2.2 1.9-2.6 1.5-.5-.4-.2-1.2.5-1.7.9-.5-.4-.7-3.3-.6-3.7.2-4.6 0-4.1-1.1.3-.8.5-1.7.5-1.9 0-.2.5-.4 1.1-.4.5 0 .7.4.4 1-.3.5-.1 1 .5 1 .7 0 .9-.7.6-1.6-.4-.9-.1-2.4.6-3.2.8-1 .9-1.3.2-.9s-1.4 0-1.8-.8c-.6-1.7-2.6-2-2.6-.4 0 .5.4.8.9.5.5-.3 1.2.1 1.5 1 .5 1.2.2 1.5-.9 1-.9-.3-1.4-.2-1 .3.7 1.2-.5 4.2-1.5 3.6-.4-.2-.6-1.8-.4-3.5.2-1.9 0-2.9-.6-2.5-.6.3-1 .2-1-.4 0-.5.9-1.3 2.1-1.6 1.1-.4 1.8-.9 1.6-1.2-.3-.2-1.4 0-2.6.6-2.2 1.2-3.5.2-1.7-1.4 1.8-1.5 3.7-1.7 5.2-.4 1.9 1.5 3.3.3 2.6-2.4-.5-2.1-.5-2.2 1.5-.4 1.7 1.5 2.3 1.6 2.9.5.4-.7.4-1-.1-.6-.4.4-1.4 0-2.2-.8-1.8-1.8-3.6-.8-3 1.7.8 2.8-1.2 2.3-2.3-.7-.6-1.4-1.4-2.2-2-1.9-.5.3-1 .2-1-.4 0-.5.5-1.2 1-1.4.6-.3.5-.4-.2-.3-.7.2-1.3.9-1.3 1.7 0 .8.6 1.3 1.3 1.1 1.3-.2 1.6 1 .5 2.1-.3.4-1.2.2-2-.4-1-.9-1.7-.8-2.8.1-.9.8-1.5.9-1.5.2 0-.6.4-1.4 1-1.7.5-.3 1.4-1.4 1.9-2.3.8-1.4.5-1.8-1.2-1.9-1.6-.2-1.8 0-.8.7 1.2.7 1.1 1.1-.3 2.5-.9 1-1.5 2.3-1.3 3 .3.7-.5 1.2-2.3 1.2-1.6 0-2.6-.5-2.4-1.1.2-.6-.5-1.7-1.7-2.4-1.7-1.1-2.3-1.1-3.7 0-1.4 1.1-1.5 1-.9-.5.4-1 .7-2.1.7-2.3 0-.3.4-.3.9 0s1.4-.1 2.1-.9c.9-1 .9-1.5.1-1.5-.6 0-1-.6-.8-1.3.1-.7-.8-1.2-2.1-1.1-1.6 0-2.1-.4-1.7-1.5.6-2.1-1-4.7-1.9-3.2zm1.4 2c0 .5-.4 1.1-1 1.3-.5.1 0 1.4 1.1 2.8 1.1 1.5 1.7 1.8 1.3.7-.4-1.1-.1-1.7.8-1.7.7 0 1.4.8 1.5 1.9.1 1.4-.5 1.8-3 1.6-4.3-.4-4.4-.4-2.8-1.4.9-.6 1-1.1.2-1.5-.6-.4-1.1-.2-1.1.5s-.2 1-.5.7c-.8-.7 1.6-5.8 2.7-5.8.4 0 .8.4.8.9zm-5.3 3.8c-.7.7 3.2 3.8 4.8 3.8.5 0 1 .7 1.1 1.5.2 3 .4 3.2 2 2 1.2-1.1 1.8-1 3.2.3 1.3 1.4 1.4 1.7.2 1.7-1.1.1-1.1.3.3 1.1.9.5 1.7 1.5 1.7 2.2 0 .7-.4.6-1-.3-.8-1.3-.8.8-.1 4.9.1.2.7-.2 1.5-.8.9-.7 1.7-.8 2-.2.3.5.1 1.1-.6 1.3-.8.3-.6.7.4 1.1 1.3.4 1.6.1 1.3-1.4-.3-1.2.1-1.9.7-1.7 1.4.5 2 3.8.7 3.8-.6 0-.7.5-.3 1.1.4.8.9.7 1.6-.2.8-1.1.8-1 .4.4-.3 1.1 0 2 .9 2.4 1.3.5 1.3.7-.2 1.9-1.7 1.3-1.7 1.4.1.7 1.8-.6 1.8-.5.1 2.3-1.3 2.3-1.4 2.5-.1 1 1.5-1.9 2.2-1.1 1.6 1.9-.1.5.4.4 1.1-.3 1.5-1.4 3.3-1.6 2.4-.3-.3.5-.1 1.2.4 1.6.6.3.8-.4.6-1.5-.3-1.3 0-1.8.7-1.4.7.5.8.2.2-.7-2.7-4.3.1-6.2 4.3-2.9 2.1 1.6 2.1 1.9.7 3.1-.9.8-2.4 1.4-3.3 1.4-.9 0-1.5.5-1.4 1.1.1.7-.7 2-1.8 3s-2 1.4-1.9.9c.4-1.8 0-3.5-.7-3.4-.5.1-1.1 0-1.5-.1-.5-.1-1.8-.3-3-.4-1.6-.1-2.3-.7-2.3-2.1 0-1.1-.4-2.7-1-3.5-.7-1.2-.6-1.3.7-.3 1.8 1.6 3.2.5 1.7-1.4-.6-.7-.8-1.3-.4-1.3.5 0-.2-.9-1.5-2-1.9-1.6-2.6-1.8-3.8-.7-1.3 1-1.4.9-.8-.1.4-.7-.9-2.8-3.6-5.6-3.2-3.2-5-4.2-7-4.1-1.5.1-2.5-.1-2.3-.5.7-1.1-2-3.1-3-2.2-.5.4-.5.1-.1-.6.4-.6.2-1.2-.3-1.2-.6 0-1.1.5-1.1 1.2 0 .6-.3.8-.6.5-.8-.7 4.6-7.5 6-7.6.5-.1.6.2.3.6zm21.1 9.9c-1.5 1.5-1.4 1.9.4 5 1.1 1.8 1.7 3.8 1.4 4.3-.4.5-.2 1.2.4 1.6.6.4.8 1.1.5 1.6-.4.5-.1.9.5.9s.8.4.5 1c-.3.5 0 1 .7 1.1 1 0 1 .2-.1.6-1 .4-1 .7-.1 1.3.8.5.7.9-.5 1.3-.9.4-1.3.3-1-.3.3-.6 0-1-.7-1-.9 0-.9-.3.2-1s1.1-1 .2-1c-.7 0-1-.5-.7-1 .3-.6 0-1.3-.9-1.6-.8-.3-1.2-1.2-1-1.9.3-.7.1-1.6-.5-1.9-.6-.4-.8-1.3-.5-2 .6-1.5-2.2-2.9-3.8-1.9-.7.3-.8.1-.4-.5 1.1-1.9-.5-1.4-2.1.5-1.1 1.6-1.2 1.4-.1-1.2 1.7-4.1 1.7-4.1 3.4-1.7.8 1.2 2.1 2.2 2.7 2.2.7 0 .4-.5-.6-1.1-1.8-1-1.8-1.2-.1-3 .9-1 2.2-1.9 2.8-1.9.6 0 .3.7-.6 1.6zm.5 27.5c-.8.8-1.3.7-1.8-.2-.5-.8-.4-1 .3-.5.7.4 1.2.2 1.2-.5s.3-.9.7-.6c.4.4.2 1.2-.4 1.8z"/><path d="M334 174.5c-1.1 1.4-.9 2 1.5 4.3 1.5 1.5 2.5 2.2 2.1 1.6-.3-.7.1-1.4.9-1.7.8-.4 1.3-.1 1.1.6-.1.7-.1.9.1.5.2-.3 2.2 1.3 4.5 3.5 2.2 2.3 3.6 3.5 3.1 2.7-.6-.8-.9-2.8-.7-4.3.2-1.9-.1-2.7-.9-2.4-.7.2-1.1 1.3-.9 2.3.2 1.6 0 1.6-1.8-.5-1.2-1.3-1.8-3.1-1.6-3.8.4-.8.1-1.1-.5-.7-.6.3-2.1-.4-3.3-1.5-2.1-2-2.4-2-3.6-.6zm3.6 1.7c1 1.2 1.3 1.8.7 1.4-.8-.4-1.3-.2-1.3.6s-.5.7-1.6-.4c-.9-.9-1.3-2.1-1-2.7.9-1.5 1-1.4 3.2 1.1z"/><path d="M335 176c0 .5.5 1 1.1 1 .5 0 .7-.5.4-1-.3-.6-.8-1-1.1-1-.2 0-.4.4-.4 1zM365.5 196.9c-.4.8-.1 1.9.8 2.8 1.9 2 3 .1 1.3-2.2-1-1.4-1.5-1.5-2.1-.6zm1.9 1.7c.3.8.2 1.2-.4.9-.6-.3-1-1-1-1.6 0-1.4.7-1.1 1.4.7zM354.9 198.2c-.5 1.8-.6 3.8-.1 3.4.7-.8 1.2-3.6.6-3.6-.2 0-.4.1-.5.2zM378 166c-1.2.7-1 .9.7.7 1.2 0 1.9-.5 1.7-.9-.6-1-.6-1-2.4.2zM354.4 167.4c-1.4 1.1-1.6 1.8-.8 2.6.9.9 1.4.9 1.9-.1.5-.8.4-1-.3-.5-1.9 1.1-1.4-.5.6-2 .9-.7 1.4-1.4 1.1-1.4-.3 0-1.4.6-2.5 1.4zM360.6 167.9c.8.9 4.4 1.1 4.4.3 0-.4-1.1-.8-2.5-.8-1.3 0-2.2.2-1.9.5zM357.6 168.9c-.3.5.5 1.6 1.9 2.5 2.1 1.4 2.4 1.4 1.9.1-.4-.8-1.3-1.5-2.1-1.5s-1.1-.5-.8-1c.3-.6.4-1 .1-1-.3 0-.7.4-1 .9zM367 170.4c.7.7 1.3.7 2 0 .6-.6.3-1-1-1s-1.6.4-1 1zM381.4 169.8c.4.3 1.4.7 2.2.8.9.1 1.3 0 1-.4-.4-.3-1.4-.7-2.2-.8-.9-.1-1.3 0-1 .4zM350.1 172.6c-1.1 1.3-1 1.5.5 1.2 1.2-.2 1.9.4 2.2 1.7.2 1.6.1 1.7-.7.5-.7-1-1.1-1.1-1.1-.3 0 .7-.5 1.3-1.1 1.3-.5 0-.7-.5-.4-1 .3-.6.1-1-.5-1-.7 0-1 .6-.7 1.2.2.7 1.2 1.2 2.1 1.1 1.2-.1 1.6.4 1.2 1.5-.5 1.3-.2 1.2.9-.2 1.7-2.3 1.9-4.2.5-5.1-.6-.4-.8-1.1-.5-1.6 1-1.5-.9-1-2.4.7zM355.1 172c-.9.5-.4.7 1.3.7 2.9 0 3.2-.2 1.3-1-.8-.3-2-.2-2.6.3zM365.1 172.6c0 1.1.3 1.4.6.6.3-.7.2-1.6-.1-1.9-.3-.4-.6.2-.5 1.3zM380.6 174.2c.3.5 1 .6 1.5.3 1.3-.9 1.1-1.2-.6-1.2-.8 0-1.2.4-.9.9zM384.6 173.8c-.3.5.1.9.9.9s1.2-.4.9-.9c-.3-.4-.7-.8-.9-.8-.2 0-.6.4-.9.8zM367.7 175c1.5 1.6 5.3 2.4 5.3 1.1 0-.5-.8-.8-1.7-.6-1 .1-2.5-.2-3.3-.8-1.2-.9-1.3-.9-.3.3zM364 176c-.9.6-1 1-.3 1 .6 0 1.5-.5 1.8-1 .8-1.2.4-1.2-1.5 0zM373.1 180.6c0 1.1.3 1.4.6.6.3-.7.2-1.6-.1-1.9-.3-.4-.6.2-.5 1.3zM382.3 183.6c.9 1.1 1.4 2.4 1 2.7-.3.4-.1.7.5.7 1.9 0 1.4-1.5-1-3.6-2.3-1.9-2.3-1.9-.5.2zM387.4 184.5c0 1.3.3 2.2.7 1.9.8-.4.6-3-.2-3.8-.3-.3-.5.5-.5 1.9zM333.3 185.6c-1.5 1.2-2.5 2.5-2.1 2.9 1 1.1 2.9-.5 2.2-1.8-.3-.7.1-.4.9.5.8 1 1.7 1.5 2 1.1.4-.3.1-1.3-.6-2.1-1-1.3-.9-1.4.2-.7 1 .6 1.2.4.6-.5-.5-.9-.4-1.1.4-.6.6.4.9 1.2.6 1.7-.4.5-.1.9.4.9.6 0 1.1.7 1.1 1.6 0 .8.5 1.2 1 .9.6-.4.8-1 .5-1.5-.3-.5-.2-1.1.3-1.4.4-.2.8.6.8 1.9 0 1.3-.4 2.1-1 1.8-.5-.3-.6-.1-.2.5.3.6.2 1.3-.4 1.7-1.5.9-.1 2.7 1.6 2.1 1.2-.4 1.2-.2.3 1.5-.6 1.2-1.7 1.8-2.5 1.5-1.5-.6-2 .9-.6 1.8 1.3.8 5.3-2.4 4.6-3.6-.4-.7-.2-.8.5-.4.6.4.8 1.2.5 1.8-.5.7-.2.8.6.3 1-.6 1.1-.4.4.6-1.5 2.5-1.4 4.6.2 2.5 1.1-1.6 1.4-1.7 1.4-.4 0 .8.7 2.1 1.6 2.9 1.4 1.2 1.4 1.4.1 2.4-1 .7-1.3 1.6-.7 2.5.5.8 1.2 1.1 1.6.7.4-.4 1.2-.3 1.8.2.7.6 1.9.1 3.4-1.6 1.2-1.4 1.7-2.3 1-2-1.9.7-6-1.1-5.3-2.3 1.6-2.7 1.3-4.6-.8-4.5-2.4.2-5.2-2.9-4.2-4.5.3-.5 0-.7-.8-.4-2.4.9-3.1-1.6-1.1-3.7 1.8-2 1.8-2.1-.1-3.2-1.1-.6-2.7-1.1-3.5-1.2-.8 0-1.4-.5-1.3-1.1.3-1.8-2.4-1.2-5.4 1.2zm10.2 2.3c.3.5.2 1.2-.3 1.5-.5.3-.9-.1-.9-.9 0-1.7.3-1.9 1.2-.6zm6.7 12.5c.7-.4.8-.2.4.5-.9 1.3-2.6.5-2.5-1.2 0-.9.2-.8.6.1.2.6 1 .9 1.5.6zm1.7 6.2c.4-.3.8.1.8.9 0 1-.4 1.2-1.2.5-.7-.5-1.5-.7-1.9-.3-.4.4-.4-.1 0-1.2.5-1.1.9-1.4 1.2-.7.2.7.7 1 1.1.8zM368.3 183.8c1 .4 1.8 1.2 1.7 1.7 0 .6.6 1.1 1.4 1.3.9.2 1.6-.1 1.6-.7s-.7-.8-1.5-.4c-1 .3-1.5.1-1.3-.8.2-.7-.6-1.4-1.7-1.6-1.8-.3-1.8-.2-.2.5zM378.4 184.2c-.4.7-.4 1 .1.6.4-.4 1.4 0 2.2 1 1.3 1.5 1.3 1.5.3-.6-1.2-2.5-1.6-2.7-2.6-1zM365.7 185.1c.7.7 1.5 1 1.8.7.3-.3-.2-.9-1.2-1.2-1.4-.6-1.5-.5-.6.5z"/><path d="M319.8 189.2c-2.5 3.6-3.4 4.7-8.2 9.9-1.7 1.9-3 4.2-2.8 5 .3.8.1 1.1-.3.7-.4-.4-1.3-.1-2 .5-1 .9-1 1.5-.1 2.6.9 1.2.8 1.3-.2.7-.9-.6-2.6.6-5.3 3.5-2.1 2.4-3.9 4.9-3.9 5.4 0 .6-.9 1.6-2.1 2.3-1.2.8-1.8 1.9-1.5 2.7.3.8.1 1.4-.3 1.2-.5-.1-2.1 1.1-3.6 2.7-2.1 2.3-2.4 3.1-1.3 3.8 1 .8.9.9-.3.5s-3.6 1.9-8.4 7.9c-3.6 4.6-6.4 8.8-6 9.4.3.6 0 .7-.9.4-.9-.3-1.6-.1-1.6.4 0 .6-.8 1.8-1.7 2.8-3.8 3.8-7.2 8.7-6.7 9.5.3.5.1.8-.4.7-1.1-.3-6.2 4.8-6.2 6.2 0 .4-.4 1-.8 1.2-.7.2-12.3 14.4-26.6 32.2-1.7 2.2-4.1 5.1-5.3 6.5-1.3 1.4-2.6 3-3.1 3.6-.4.5-5.5 6.8-11.2 14-5.8 7.1-11.4 14.1-12.5 15.5-1.5 1.9 11.3-7.6 13.5-10 .3-.3 5.2-4.4 11-9 5.8-4.5 11-8.8 11.5-9.4.6-.6 3.4-2.9 6.3-5.1 2.8-2.1 5.2-4.3 5.2-4.7 0-.4.6-.8 1.4-.8.8 0 1.6-.3 1.8-.8.2-.4 2.8-2.8 5.8-5.2 9.7-7.9 13.5-11.4 13.2-12.3-.1-.5.2-.6.8-.2.5.3 7.2-4.5 14.7-10.7 7.6-6.3 15-12.2 16.5-13.3 1.5-1.1 2.8-2.6 2.8-3.3 0-.7.4-1.1.9-.7.6.3 1.4-.3 2-1.2.6-1 1.1-1.5 1.1-1.1 0 .8 3.5-1.9 7.7-5.9 1.3-1.2 2.3-1.9 2.3-1.6 0 .4 1.1-.4 2.5-1.7 1.3-1.2 2.2-2.7 1.8-3.3-.3-.6-.1-.7.6-.3.6.4 1.7.1 2.5-.6.7-.7 3.2-2.8 5.4-4.7 2.3-1.9 3.9-3.9 3.5-4.4-.3-.6-.1-.7.6-.3 1.4.9 4.3-1.2 3.5-2.5-.3-.5 0-.8.8-.7.7.2 1.2-.2 1.1-.9-.2-.7.3-1 1.1-.7.8.3 2.1-.5 3-1.8.9-1.3 2-2.2 2.3-2 .4.2.9-.2 1.2-.9.2-.8-.2-1-1.3-.6-1 .4-1.5.3-1.1-.3.3-.6 1.8-.7 3.3-.4l2.7.6-2.5-2.1c-1.8-1.4-2.7-1.6-3.2-.8s-.8.6-.8-.6c0-2.1.4-2.1 3.5-.1 2.3 1.5 2.7 1.5 5.1 0l2.5-1.7-3-3.2c-1.7-1.7-3.1-3.3-3.2-3.6-.7-4.6-.5-5 1-3.8 1.4 1.1 1.4 1 .2-.6-.9-1.1-2.1-1.5-3.3-1.1-1.6.5-1.8.1-1.4-2.2.4-2 .2-2.4-.6-1.6-.6.6-1.2 2.2-1.3 3.7-.3 2.1 0 2.5 1.6 2 1.1-.4 1.9-.2 1.9.5 0 .6-.4.8-1 .5-.5-.3-1-.2-1 .4 0 .5.6 1.1 1.3 1.4.9.4.9.7 0 1.7-1 1.1-1.5 1.1-2.8 0-.8-.7-1.5-.9-1.5-.4 0 .4-.6-.1-1.4-1.2-2-2.7-1.2-3 1.5-.5 3.5 3.2 4.6 2.5 1.4-.9-1.9-2-3.5-2.8-4.7-2.5-1 .4-2.4-.2-3.4-1.4-.9-1-2.4-1.7-3.3-1.4-1.3.4-1.3.3.1-.7 1-.6 1.5-1.8 1.2-2.8-.4-1.1-.3-1.3.3-.5.5.6 2.2 1.9 3.8 2.7 1.9 1 2.4 1.6 1.3 1.6-.9 0-2-.5-2.3-1-.3-.6-1.1-1-1.7-1-.6 0-.3.9.6 1.9 1.9 2.1 6.3 2.3 7.1.4.2-.7.1-1.2-.3-1.1-.4.1-2.2-.7-3.9-1.8-2.2-1.4-2.9-2.4-2.2-3.1.6-.6 0-1-2-1-2.2 0-2.8.4-2.4 1.6.4 1.3.3 1.3-.5.2s-1.1-.9-1.7.8c-.3 1.1-1.1 2.1-1.6 2.1-.6 0-.3-1 .5-2.1.8-1.2 1.2-2.7 1-3.4-.3-.7-.1-1.6.5-2 .7-.4.8.1.4 1.2-.6 1.6-.5 1.6 1.6-.1 1.8-1.7 2.1-1.7 1.5-.3-.3 1-.1 1.7.5 1.7s1.1-.5 1.1-1c0-.6.5-.9 1.1-.8.6.2 1.8-.8 2.7-2.2 1.3-1.9 1.4-2.2.2-1.5-.8.5-2.4 1-3.5 1.2-1.1.2-2.9.5-4 .7-3.1.5-4.7-.4-3.5-1.9.8-.9.6-1.4-.6-1.9-2.6-1-3.2-.7-5.6 2.6zm2.7-1.2c-.3.5-.1 1 .6 1s1 .3.6.6c-.9.9-2.8-.6-2.2-1.7.4-.5.8-.9 1.1-.9.3 0 .2.4-.1 1zm3.5 3.8c0 .4-.9.8-2 .9-1.1.1-2-.2-2-.5 0-.4.9-.8 2-.9 1.1-.1 2 .2 2 .5zm-5 2.2c0 .5-.4 1-1 1-.5 0-1-.5-1-1 0-.6.5-1 1-1 .6 0 1 .4 1 1zm4.2.7c-.6.2-1 .9-.7 1.4.4.5-.1.6-1 .2-1.3-.5-1.4-.7-.3-1.4.7-.5 1.8-.8 2.3-.8.6 0 .4.3-.3.6zm-7.2 1.2c0 .5-.7 1.2-1.6 1.5-1.4.5-1.5.4-.4-.9 1.4-1.7 2-1.9 2-.6zm4.3 2.8c-.4 1.1-.3 1.4.5.9.7-.4 1.2-.2 1.2.3 0 .6-.4 1.1-.9 1.1-1.4 0-2.3-1.8-1.6-3 1-1.6 1.5-1.2.8.7zm-7.6 1.8c0 .8-.4 1.2-.9.9-.5-.3-.6-1-.3-1.5.9-1.3 1.2-1.1 1.2.6zm13.6 3.6c-.4.4-1.5.4-2.3-.2-1.2-.9-1.2-1 .3-.5s1.7.2 1.2-1.7c-.5-2-.5-2 .6-.4.6 1.1.7 2.3.2 2.8zm-15.8-1.2c.3.5.2 1.2-.3 1.5-.5.3-.9-.1-.9-.9 0-1.7.3-1.9 1.2-.6zm6.2 1.1c.1 1.6-.1 1.7-1.2.7-1.1-1-.8-1.9 1-2.7.1 0 .1.9.2 2zm13.7-.5c.3.8.1 1.5-.4 1.5-.6 0-1-.7-1-1.5s.2-1.5.4-1.5.6.7 1 1.5zm-5.7 3c.4.4.3.5-.4.2-.6-.4-1.3-.2-1.5.5-.6 1.6-3.5 1.8-3.5.2 0-1.1.3-1.1 1.6-.1 1.2 1 1.4.9.9-.5-.7-1.7 1.4-2 2.9-.3zm4.2 1.3c-.1 1.5-.2 1.5-.6-.1-.2-.9-.9-1.4-1.5-1.1-.7.4-.8.2-.4-.5 1-1.5 2.6-.4 2.5 1.7zm7.4 3.2c-.3.3-.8-.1-1-.8-.4-1-.8-1-1.9-.1-1.7 1.4-3-1.1-1.9-3.9.6-1.5 1-1.3 3 1.3 1.3 1.6 2.1 3.2 1.8 3.5zm-19.6-2.5c0 .8-.4 1.2-.9.9-.5-.3-.6-1-.3-1.5.9-1.3 1.2-1.1 1.2.6zm28.4 5.1c-.9.7-1.8 1-2.1.7-.3-.3.1-.8.8-1 .6-.3 1.2-.9 1.2-1.5s-.7-.7-1.6-.4c-1.4.5-1.5.4-.4-.9 1.1-1.4 1.4-1.3 2.5.2 1.1 1.4 1 1.9-.4 2.9zm-24-1.9c1.3 1.6 1.2 1.7-.3.4-1.7-1.3-2.2-2.1-1.4-2.1.2 0 1 .8 1.7 1.7zm-5.1-.1c0 .8-1.9 1.3-2.4.6-.3-.5.1-.9.9-.9s1.5.2 1.5.3zm11-.2c0 .3-.4.8-1 1.1-.5.3-1 .1-1-.4 0-.6.5-1.1 1-1.1.6 0 1 .2 1 .4zm5.5 1.4c-.3.3-1.1 0-1.8-.7-.9-1-.8-1.1.6-.5 1 .3 1.5.9 1.2 1.2zm8.9-.2c.3.8.2 1.2-.4.9-.6-.3-1-1-1-1.6 0-1.4.7-1.1 1.4.7zm-4.6.6c-.2.6-1.5 1.3-2.9 1.5-1.8.2-2 .1-.9-.6.8-.5 1.8-.7 2.2-.5.4.3.8 0 .8-.5 0-.6.3-1.1.6-1.1s.4.5.2 1.2zm-35.3.8c-.3.5-1.2 1-1.8 1-.7 0-.6-.4.3-1 1.9-1.2 2.3-1.2 1.5 0zm36.1 1.8c-1.7 1.6-1.8 1.6-.5-.5.7-1.2 1.5-2 1.8-1.7.3.2-.3 1.2-1.3 2.2zm-26.9-.5c0 .8-.6 1.4-1.4 1.4-.9 0-1-.4-.2-1.4.6-.7 1.2-1.3 1.4-1.3.1 0 .2.6.2 1.3zm37.1.1c-.7.8-1.7 1.2-2.2.9-.4-.3-.2-.9.5-1.4 2.2-1.3 3.1-1.1 1.7.5zm-41.7 1.9c-1 .9-1.1.8-.5-.6.3-1 .9-1.5 1.2-1.2.3.3 0 1.1-.7 1.8zm-7.1.1c0 .3-.4.8-1 1.1-.5.3-1 .1-1-.4 0-.6.5-1.1 1-1.1.6 0 1 .2 1 .4zm31.6 2.1c.1.8-.2 1.5-.6 1.5-.5 0-.8-.9-.7-2 .1-2.1 1-1.8 1.3.5zm8.4-1.5c0 .5-.5 1-1.1 1-.5 0-.7-.5-.4-1 .3-.6.8-1 1.1-1 .2 0 .4.4.4 1zm-4.7 3.5c-.3.9-.8 1.4-1 1.1-.3-.3-.2-.9.2-1.5.9-1.6 1.5-1.3.8.4zm-3.6 5.7c.2 1.7 0 1.9-.7.8-.5-.8-.6-1.8-.4-2.2.8-1.2 1-1 1.1 1.4zm-36.6 2.1c-1 .9-1.1.8-.5-.6.3-1 .9-1.5 1.2-1.2.3.3 0 1.1-.7 1.8zm22.9 1.1c0 .2-.8 1-1.7 1.7-1.6 1.3-1.7 1.2-.4-.4 1.3-1.6 2.1-2.1 2.1-1.3zm-28.6 3.4c.2.4-.5.9-1.7.9-1.7.2-1.9 0-.7-.7 1.8-1.2 1.8-1.2 2.4-.2zm8.6-.4c0 .3-.4.8-1 1.1-.5.3-1 .1-1-.4 0-.6.5-1.1 1-1.1.6 0 1 .2 1 .4zm8 .6c0 .5-.5 1-1.1 1-.5 0-.7-.5-.4-1 .3-.6.8-1 1.1-1 .2 0 .4.4.4 1zm3.5 0c.3.5.1 1-.4 1-.6 0-1.1-.5-1.1-1 0-.6.2-1 .4-1 .3 0 .8.4 1.1 1zm-25.9 4.2c.3.4-.1.5-1 .4-.8-.1-1.8-.5-2.2-.8-.3-.4.1-.5 1-.4.8.1 1.8.5 2.2.8zm21.9-.2c.3.5.1 1-.4 1-.6 0-1.1-.5-1.1-1 0-.6.2-1 .4-1 .3 0 .8.4 1.1 1zm-11.9 4.5c-.1.8-.5 1.7-.8 2.1-.5.4-.4-1.6.1-3.4.3-.9.9.1.7 1.3zm4.4-.5c0 .5-.5 1-1.1 1-.5 0-.7-.5-.4-1 .3-.6.8-1 1.1-1 .2 0 .4.4.4 1zm9.1 6.7c1.3 1.6 1.2 1.7-.3.4-1.7-1.3-2.2-2.1-1.4-2.1.2 0 1 .8 1.7 1.7zm-7.6 1.2c-.9.8-3.6 1-3 .2.2-.4 1.1-.8 2-.8.8 0 1.3.3 1 .6zm-20.5 5.7c0 .8-1.9 1.3-2.4.6-.3-.5.1-.9.9-.9s1.5.2 1.5.3zm9 6.8c0 .2-.8 1-1.7 1.7-1.6 1.3-1.7 1.2-.4-.4 1.3-1.6 2.1-2.1 2.1-1.3z"/><path d="M334 208c0 1.9.3 2.1 1.2 1.2.9-.9.9-1.5 0-2.4-.9-.9-1.2-.7-1.2 1.2zM374.1 187.6c0 1.1.3 1.4.6.6.3-.7.2-1.6-.1-1.9-.3-.4-.6.2-.5 1.3zM368.7 188.1c.7.7 1.5 1 1.8.7.3-.3-.2-.9-1.2-1.2-1.4-.6-1.5-.5-.6.5zM376.6 188.3c.3 1 .9 1.5 1.2 1.2.3-.3 0-1.1-.7-1.8-1-.9-1.1-.8-.5.6zM367 189.8c0 .7.6 1.2 1.3 1.2.9 0 .8.3-.2.9-.9.6-.6.8 1.2.8 2.4 0 4.5-2.3 3.2-3.5-.2-.3-.7.3-1.1 1.2-.6 1.6-.8 1.6-2.5 0-1.1-1-1.9-1.2-1.9-.6zM379 190.1c0 .5.5.7 1 .4.6-.3 1-.8 1-1.1 0-.2-.4-.4-1-.4-.5 0-1 .5-1 1.1zM336.5 192c-2.1 2.3-.8 2.7 2 .7 1.1-.8 1.4-1.6.8-2-.6-.4-1.8.2-2.8 1.3zM376 191.9c0 .5.7 1.2 1.6 1.5 1.4.5 1.5.4.4-.9-1.4-1.7-2-1.9-2-.6zM336.3 194.7c-1.8.7-1.6 2.3.3 2.3.8 0 1.2-.5.9-1-.3-.6-.1-1 .4-1 .6 0 1.1.4 1.1 1 0 .5.5 1 1.1 1 .8 0 .8-.5-.1-1.5-1.3-1.6-1.7-1.7-3.7-.8zM506.6 316.2c.3.5 1 .6 1.5.3 1.3-.9 1.1-1.2-.6-1.2-.8 0-1.2.4-.9.9zM503.5 319.1c-.4.6-.5 1.2-.2 1.5.2.3.7-.2 1-1.1.7-1.7.1-2-.8-.4zM519.5 321.9c-.3.5-.2 1.2.3 1.5.5.3.9-.1.9-.9 0-1.7-.3-1.9-1.2-.6zM503.5 322.9c-.3.5-.2 1.2.3 1.5.5.3.9-.1.9-.9 0-1.7-.3-1.9-1.2-.6zM528 324c-.9.6-1 1-.3 1 .6 0 1.5-.5 1.8-1 .8-1.2.4-1.2-1.5 0zM499.3 325.3c0 .8.6 1.4 1.4 1.4.9 0 1-.4.2-1.4-.6-.7-1.2-1.3-1.4-1.3-.1 0-.2.6-.2 1.3zM519 326.4c0 .2.8 1 1.8 1.7 1.5 1.3 1.6 1.2.3-.4s-2.1-2.1-2.1-1.3zM505 327.4c0 .2.7.7 1.6 1 .8.3 1.2.2.9-.4-.6-1-2.5-1.4-2.5-.6zM503 328.4c0 .2.8 1 1.8 1.7 1.5 1.3 1.6 1.2.3-.4s-2.1-2.1-2.1-1.3zM525.4 330.4c.1.8.5 1.8.8 2.2.4.3.5-.1.4-1-.1-.8-.5-1.8-.8-2.2-.4-.3-.5.1-.4 1zM497.6 331.3c.3 1 .9 1.5 1.2 1.2.3-.3 0-1.1-.7-1.8-1-.9-1.1-.8-.5.6zM492.7 332.1c.7.7 1.5 1 1.8.7.3-.3-.2-.9-1.2-1.2-1.4-.6-1.5-.5-.6.5zM532.7 332.1c.7.7 1.5 1 1.8.7.3-.3-.2-.9-1.2-1.2-1.4-.6-1.5-.5-.6.5zM511.4 334.4c.1.8.5 1.8.8 2.2.4.3.5-.1.4-1-.1-.8-.5-1.8-.8-2.2-.4-.3-.5.1-.4 1zM505.3 335.2c-2 2.6-2.2 3.5-.8 3.5.8 0 1.2-.4.9-.9-.3-.5 0-1.5.6-2.3.7-.8 1-1.5.7-1.5-.2 0-.9.6-1.4 1.2zM489 336c0 .5.5 1 1 1 .6 0 1-.5 1-1 0-.6-.4-1-1-1-.5 0-1 .4-1 1zM535.5 335.9c-.3.5-.2 1.2.3 1.5.5.3.9-.1.9-.9 0-1.7-.3-1.9-1.2-.6zM499.5 339.2c.4 1.3 1.1 2.7 1.6 3.3.5.5.4-.5-.2-2.3-1.2-3.6-2.4-4.4-1.4-1zM518.5 338c-.3.6.1.7.9.4 1.8-.7 2.1-1.4.7-1.4-.6 0-1.3.4-1.6 1zM487.2 339.6c-.7.8-.8 1.4-.3 1.4 1 0 2.5-1.9 2-2.5-.2-.1-1 .3-1.7 1.1zM491.1 339c0 .8.4 2.2.9 3 1.2 1.8 1.2.2 0-2.5-.6-1.3-.9-1.5-.9-.5zM494.7 339.4c-.4.9-.3 1.5.2 1.1.5-.3 1.1 0 1.3.7.3.7.7.5 1.1-.6.4-.9.3-1.5-.2-1.1-.5.3-1.1 0-1.3-.7-.3-.7-.7-.5-1.1.6zM507.3 339.4c0 1.5 2.2 1.5 3.4 0 .4-.5.4-.6-.1-.2-.5.4-1.4.3-2.1-.2-.8-.7-1.2-.5-1.2.4zM544 340c-.9.6-1 1-.3 1 .6 0 1.5-.5 1.8-1 .8-1.2.4-1.2-1.5 0zM484.6 342.3c.3 1 .9 1.5 1.2 1.2.3-.3 0-1.1-.7-1.8-1-.9-1.1-.8-.5.6zM488 342.1c-1.3.9-1.2 1 .3.5 2-.6 2.1-.2.6 2.5-.8 1.6-1.3 1.8-2.5.8-.8-.6-1.4-.8-1.4-.4 0 1.1 5.3 5.5 5.9 4.9.3-.3-.2-1-1.2-1.5-1.6-.9-1.6-1.2 0-3.5 1.8-2.8.7-5-1.7-3.3zM511.3 343c-.1 1.1.1 2.2.5 2.4.4.2.8-.7.8-2 .1-1.3-.1-2.4-.5-2.4s-.7.9-.8 2zM536.6 341.8c-.3.5.1.9.9.9s1.2-.4.9-.9c-.3-.4-.7-.8-.9-.8-.2 0-.6.4-.9.8z"/><path d="M482.6 343.4c.6 1.5.4 1.8-.9 1.3-1.2-.4-1.4-.2-1 1 .4 1.1.3 1.4-.5.9-.7-.4-1.5-.1-1.8.8-.3.9-1 1.3-1.5 1-1.2-.7-.7 1.9.5 2.8.5.3 1.1 1.2 1.2 2 .1.7.3 1.9.5 2.7.2.7-.2 1.6-.9 1.8-.7.3-1-.1-.6-1.1s0-1.8-1.1-2.2c-1.2-.5-1.3-.9-.5-1.4.8-.5.7-.9-.4-1.3-.9-.4-1.5-.1-1.3.5.1.7-.5 1.2-1.3 1.3-.8 0-1.5.7-1.5 1.5-.1.8-.7 1.4-1.4 1.2-.7-.1-1 .2-.6.8.3.5-.1 1.3-1 1.6-.9.4-1.4 1.3-1.1 2.1.3.8.1 1.1-.4.8-1.1-.7-6.9 5.4-7 7.3 0 .7-.3 1.1-.7.9-.5-.3-1.4.1-2 .9-.8.7-.9 1.5-.3 1.9.5.3.6 1.3.3 2.3-.6 1.5-.5 1.5 1 .3 1.4-1.1 1.5-1.7.5-2.8-.6-.8-.7-1.3-.2-1.2 2.3.4 3.3-.3 2.9-2.1-.3-1.3 0-1.8.7-1.4.7.5.8.2.3-.6-.5-.9-.4-1.1.4-.6.6.4.9 1.2.6 1.7-.9 1.4.5 1.1 2-.5 1.7-1.6.9-2.7-1.3-1.8-1.4.5-1.5.4-.2-1 1.1-1.1 1.7-1.3 2.3-.4.6.7.7.5.3-.6-.3-1.2-.1-1.5 1-1.1 1 .4 1.2.9.4 1.8-.7.9-.5 1.6.7 2.6 1.5 1.2 1.6 1.2.9-.1-.6-1.1-.4-1.1.6.1.7.9 1.6 1.6 2 1.5.3-.1 1 .3 1.5.8.4.5.3.6-.4.2-.8-.4-1.1 0-.8 1.4.4 2.1-.9 2.8-1.8 1-.3-.6-.4-.5-.3.2.4 2.3 2.6 1.9 3.6-.6.5-1.4 1.4-2.6 2-2.6.5 0 1-.5 1-1.1 0-.5-.4-.8-.9-.5-.5.3-1.5-.2-2.2-1.2-1.3-1.6-1.3-1.6.5-.2 1.8 1.3 1.9 1.3 1.1 0-.7-1.3-.6-1.3.7-.2.8.7 2.4 1 3.4.6 1.7-.5 1.7-.4.2.6-1 .6-1.5 1.7-1.1 2.7.4.9.2 1.4-.3 1-.6-.3-1.6-.2-2.4.3-1.3.8-1.2 1.2.4 2.7 1.9 1.7 1.9 1.7.5-.2-1.3-1.8-1.3-1.9.3-.6 1 .7 1.5 1.7 1.2 2.3-.3.5 0 1.7.8 2.6 1.2 1.6 1.1 1.6-.7.2-1.9-1.4-1.9-1.4-.6.2.7 1 1.7 1.5 2.2 1.2.5-.3.9 0 .9.5 0 1.5-1.3 1.4-3-.2-1.2-1-1.2-.9-.2.4.7.9 1 2.5.6 3.5-.5 1.6-.4 1.6.5.4.9-1.3 1.1-1.3 1.1-.1 0 1.1.4 1 1.6-.5.8-1 1.2-1.2.8-.4-.6 1.2-.5 1.3.7.3 1.3-1 1.6-1 1.6.2 0 .8-.5 1.1-1 .8-.5-.3.1.8 1.4 2.6 2.6 3.5 2.9 3.6 4.8 1.8 1.1-1 1.2-.9.6.3-.8 1.3-.6 1.3.8.2 1.4-1.2 1.6-1.1 1.2.7-.2 1.2 0 1.9.6 1.6.5-.4.6-1.2.3-1.8-.4-.7-.4-.9.1-.5.4.4 1.5.2 2.4-.5 1.4-1 1.4-1 .4.4-1 1.2-1 1.8 0 2.9 1 1.2.9 1.2-.8 0-2-1.4-2-1.4-.1.6 1.3 1.3 2 1.5 2.3.6.3-.6.9-1 1.4-.6.5.3.8.2.7-.3-.2-.4 0-.8.3-.8 1.2 0 4.9-3.8 4.4-4.5-.2-.4.2-1.6 1.1-2.6 1.4-1.8 1.5-1.8.9.6l-.6 2.5 1.4-2.3c.7-1.2 1.7-1.9 2.1-1.5.5.4.3-.2-.3-1.5-1.3-2.4-.3-2.9 1.8-1 1.1 1.1 1.2 1 .6-.1s-.4-1.3.9-.8c1.1.4 1.5.3 1.1-.4-.4-.6-1.4-.8-2.2-.5-.8.4-2.7-.6-4.3-2.3-2-1.9-3.7-2.7-5.5-2.6-1.6.2-2.5-.1-2.2-.8.2-.6 1.4-1.1 2.8-1.1 1.6 0 3.2-1.1 4.7-3.2l2.4-3.2 2.5 2.4c2.9 2.6 4.5 2.5 1.9-.1-.9-.9-1.6-1.3-1.6-.8 0 .4-.5 0-1.1-.9-1-1.7-3.9-1.4-3.9.4 0 1.7-2.9 3.9-5.2 4.1-1.3 0-2.6.5-2.9 1-.3.5-.9.2-1.2-.7-.6-1.6-.2-1.8 3.8-2 1.1-.1 2-.7 2-1.4 0-.8.8-1.9 1.8-2.7 1.7-1.2 1.7-1.3 0-2-1-.5-2.3-.7-3-.6-.6.1-1.8-.8-2.7-2-1.3-2-1.6-2-3-.6-2.1 2-2.1 3.3 0 1.7 1.2-1.1 1.8-1 3.2.4 1.5 1.5 1.5 1.8.2 2.6-2.3 1.5-3.4 1.2-2-.5.9-1 .9-1.5.1-1.5-.6 0-1.1.5-1.1 1.1 0 .5-.4.7-1 .4-.5-.3-1-.2-1 .2 0 .5.9 1.4 2.1 2.1 1.2.7 1.8 1.6 1.5 1.9-.3.3-1.2 0-2.1-.7-1-.8-1.5-.9-1.5-.1 0 .6.5 1.1 1.2 1.1.6 0 .4.6-.7 1.3-2 1.5-1.2 4.2 1 3.3 1.5-.5 2.9 2 1.5 2.9-.4.3-1 0-1.2-.6-.2-.6-2.1-1.2-4.1-1.2-2.1-.1-3.6-.6-3.4-1.2.2-.5 1.1-.9 2.1-.7.9.2 1.6-.3 1.7-1 .1-.7.2-3.8.3-7 .2-4.8.1-5.4-1.1-4.2-.8.8-2 1.4-2.6 1.4-.7 0-.3-.8.8-1.7 1.4-1.1 1.5-1.4.4-1-.9.3-2.2 0-2.8-.6-1.5-1.5-1.4-3.2.2-2 2.2 1.7 5.5 1.2 7.4-1 1.8-2.2 1.8-2.2-.3-.5-2.8 2.4-4.1 2.3-1.9-.2 1-1.1 1.5-2 1.1-2-.4 0-1.6 1-2.6 2.2-1 1.3-2.1 2-2.5 1.6-1-.9 3.6-5.8 4.8-5.1.6.3.7.1.3-.5-.4-.7.1-1 1.4-.9 2.1.1 2.7 1.2 1 2-.6.3-.5.4.2.3 2.1-.4 1.5-2.9-.7-3.2-1.2-.2-3.3 1-5.3 2.9-3 2.9-3.3 3-4.9 1.4-.9-.9-1.3-2-.9-2.4.4-.4 1.1-.1 1.6.7.5.8 1.2 1.1 1.6.8.3-.4-.7-1.8-2.2-3.2-2.4-2-3-2.2-3.7-.9-.5.8-.6 1.7-.3 2 .3.4.6.1.6-.5 0-.7.4-1.2.8-1.2.5 0 .9 1.3.9 3 0 2.4-.3 2.8-1.4 1.8-3-2.5-3.3-4.5-1.1-7.3 1.6-2 1.8-2.9.9-3.8-.9-.9-1.1-.8-.5.7zm-2.7 4.8c-.4 3.7 3.1 8.1 5.8 7.1 1.1-.4 1.4-.3.9.6-.5.7 0 2.1 1 3.2.9 1 1.2 1.9.6 1.9s-1.2-.3-1.5-.8c-.2-.4-.2-.1 0 .6.1.8-.3 1.2-.9.9-.7-.2-1.3-1.3-1.3-2.4 0-2.8-1.3-4-2.1-1.9-.3.9-1 1.3-1.5 1-.5-.3-.6.2-.3 1 .3.9.1 1.6-.6 1.6-.6 0-.8-.5-.4-1.1.4-.7-.1-.7-1.6.1-1.7.9-2.5.9-3.4 0-.8-.8-.6-1 .9-.5 1.7.6 1.7.5.5-.5-1.2-.9-1.1-1 .7-.5 1.2.3 2.5.1 2.9-.7 1.3-2 1.3-3.8.1-3.8-.5 0-.7-.3-.4-.7.4-.3.2-1.2-.3-1.8-.6-.7-.8-2-.4-2.9.7-1.9 1.6-2.1 1.3-.4zm-3.1 7.3c.3.3.2.8-.2 1.2-.4.4-1.2.1-1.7-.7-.9-1.2-1-1.2-.5.2.5 1.7-2.8 4.5-4.7 4-.5-.1-.6.2-.2.8.4.7 1.2.7 2.5 0s2.1-.7 2.5 0c.4.6 1.5.8 2.5.5 1.3-.4 2.3.1 3.2 1.4 1.5 2.5 2.5 2.7 2.5.6 0-.8-.4-1.2-.9-.9-1.2.8-.9-.8.8-3.6 1.2-2.1 1.4-2.1.9-.4-.6 2.4 1.7 5 3.5 3.9.6-.4 1.7-.1 2.5.5 1.2 1 1.5 1 1.5 0 0-.8.3-1 .7-.6 1.1 1.1 1.1 7.6 0 7.6-.4 0-.5.5-.1 1.2.4.6.3.8-.3.5-1.7-1.1-3.9 2.1-2.5 3.5.7.7 1.2.8 1.2.3s.7 0 1.6 1.1c.8 1 1.3 1.4 1 .7-.4-.6-.1-1.5.5-1.9.8-.5.9-.3.4.6-.6 1-.4 1.2.8.7.9-.3 1.9-.2 2.3.4.4.6 1.1.6 2.1-.2 3.4-2.9 8.4-.3 9.1 4.6.2 1.7 0 1.6-1.3-.5-1.1-1.6-1.4-1.8-1-.6.3 1.1-.1 2.7-1.1 3.7-.9 1-1.3 2.2-1 2.7.3.5-.1 1.5-.9 2.2-.8.7-1.5.9-1.5.5 0-.5-.8-.1-1.8.8-2.1 1.9-3.8 1.1-2-1 1.5-1.8.2-2.9-1.6-1.4-.9.7-1.7.8-2 .2-.7-1.1-2.5-.9-4.5.3-1.6 1-3.5-1.7-3.6-4.9 0-2.2-2.2-2.7-4.5-1.1-1.3 1-1.3.9-.1-.7 1.2-1.5 1.1-2-.3-3.5-2.1-2.4-2-3.6.2-2.8.9.4.4-.5-1.3-1.9-1.6-1.4-2.5-2.5-2-2.4 3.1.4 3.8-.1 2.4-1.8-1-1.1-1-1.4-.1-.9.6.4 1.2.2 1.2-.3v-1.9c0-.6-.8-.8-5.8-1.4-.7-.1-1.1-.7-.8-1.4.6-1.6-2.1-1.2-3.7.6-1 1.2-.9 1.2.6.1 1.1-.9 1.7-1 1.7-.2 0 .6-.5 1.1-1.1 1.1-.6 0-.1.9 1.2 2.1l2.4 2.1-3.1-2.1c-1.7-1.1-3.4-1.8-3.8-1.6-.3.3-.2 0 .3-.7.6-.7.7-1.8.1-2.8-.7-1.3-.3-2.3 1.5-4 1.3-1.3 2.2-2.7 1.9-3.1-.5-.8 3.5-.3 4.4.6zm26.7 10.1c-.8.9-1.3 2-1 2.5.7 1.1.3 1.1-1.9.3-.9-.3-1.6-1.1-1.6-1.7 0-.6.3-.7.7-.4.3.4 1.3-.2 2-1.3.8-1.1 1.9-1.8 2.4-1.5.5.4.2 1.3-.6 2.1zM497 372c0 .5-.4 1-1 1-.5 0-1-.5-1-1 0-.6.5-1 1-1 .6 0 1 .4 1 1z"/><path d="M470.9 358.7c-1.3 1.6-1.2 1.7.4.4 1.6-1.3 2.1-2.1 1.3-2.1-.2 0-1 .8-1.7 1.7zM476.4 363.1c-.4.7-.3.9.4.5.5-.3 1.3 0 1.5.6.4.9.6 1 .6.1.1-1.7-1.6-2.5-2.5-1.2zM483.3 364.5c0 .8.5 1.1 1 .8.5-.3.7 0 .5.8-.3.8-1 1.3-1.6 1.2-.6-.2-.9.6-.7 1.7.2 1.2-.3 2.1-1.7 2.5-2 .7-2 .7.1 2.2 2.1 1.4 2 4-.1 2.7-.6-.4-.3.4.8 1.8 1 1.4 2.2 2.4 2.6 2.2.9-.5 2.3 1.6 2.3 3.6 0 2.4 1.5 4.1 2.8 3.3 1.8-1.1 3.6-1.2 4.3-.2.3.5 1 .7 1.5.3.6-.4.2-1.5-1-2.8-2-2.1-2-2.2-.1-2.2 1 0 1.7.2 1.4.5-.2.2.6 1.5 1.7 2.7 1.9 2 2 2.6.8 4.1-1.1 1.4-.8 1.3 1-.2 1.3-1.1 2.5-1.9 2.8-1.7.3.2.8.1 1.1-.3.4-.4.2-.6-.3-.5-2.1.5-3.6 0-3-1 .4-.6 1-.8 1.4-.5.5.2 1.6-.4 2.5-1.4 1.1-1.3 1.4-2.1.7-2.6-.8-.4-.8-1.2-.1-2.5.7-1.3.7-2.1-.2-2.6-.6-.4-.8-.3-.5.2.3.6.2 1.6-.3 2.4-.5.9-.5 1.9.2 2.7 1.3 1.6-.4 1.7-2 .1-.7-.7-.8-1.7-.2-2.9.7-1.2.6-2-.2-2.5-.6-.4-.8-.3-.5.2.3.6-.3 1.5-1.3 2.2-1.4.9-1.9.8-2.4-.4-.3-.9-1.1-1.2-1.7-.8-.9.5-.6 1.1.6 2.1 1.4 1 1.5 1.3.4 1.3-.8 0-3.2-1.5-5.3-3.4l-3.9-3.3 2.6-3.9c2.9-4.1 2.3-6.3-1.2-4.5-2.6 1.4-2.9-.3-.3-1.8.9-.6 1.2-1.1.7-1.1-.6 0-1.6.5-2.3 1.2-.9.9-1.2.9-1.2 0 0-.7-.4-1.2-.8-1.2-.5 0-.9.7-.9 1.5zm6.7 2.5c-.8.5-1.1 1-.6 1 .4 0-.3 1.5-1.7 3.3l-2.5 3.3 3.1 2.5c1.6 1.3 3.7 3 4.6 3.7 1.4 1.1 1.4 1.1-.1.6-2.4-.8-2.2.5.5 3.5 1.2 1.4 1.5 2.1.7 1.5-1.3-.9-2.5-1-4.5-.5-1.5.4-2-.1-2-2 0-1.1-1.3-3.2-3-4.4-2.5-2.1-2.7-2.5-1.2-3.1 1.5-.5 1.4-.8-.6-2.6-1.2-1.1-1.6-1.7-.9-1.3 1 .5 1.5-.3 1.4-2.5 0-.3.6-1.1 1.4-1.8 1.6-1.5 1.8-.8.5 1.7-.7 1.3-.6 1.8.4 1.8.7 0 1.1-.7.7-1.5-.4-1.1-.1-1.3.8-.7.9.6 1.1.4.5-.5-.7-1.2 1-3 3-3 .6 0 .3.5-.5 1zm9.7 12.7c-.4.3 0 1.5 1 2.5.9 1 1.3 2.1 1 2.5-.4.3-.7.1-.7-.5 0-.7-.5-1.2-1.1-1.2-.5 0-.8.4-.4.9.9 1.5-1.2 2.2-2.4.8-.8-1-.6-1.9.5-3.5.8-1.2 1.8-2.2 2.1-2.2.4 0 .3.3 0 .7z"/><path d="M484 373c-.9.6-1 1-.3 1 .6 0 1.5-.5 1.8-1 .8-1.2.4-1.2-1.5 0zM484.3 376.7c-.8.3-.2 1.4 1.7 2.9 1.9 1.6 2.7 3.2 2.5 4.5-.3 1.6-.1 1.8.9 1 .7-.6 1.7-.8 2.2-.3.5.4-.4-.8-2-2.6-2.7-2.9-2.5-4.7.2-2 .7.7 1.2.9 1.2.6 0-1.2-5.5-4.5-6.7-4.1zM503.7 342.6c-.3.3-.3 1.3 0 2.2.4 1 .2 1.3-.5.8-.6-.3-1.4-.1-1.8.6-.4.7-.4 1 .1.6.4-.4 1.4 0 2.2 1 1.2 1.6 1.3 1.6.6-.2-.4-1.3-.3-1.7.5-1.2.6.3 1.4.1 1.8-.5.4-.8.3-.9-.4-.5-1.1.6-1.6-.6-1.3-2.7.1-.9-.4-.9-1.2-.1zM493.9 343.7c-.1.5-.1 1.2 0 1.7s-.5.6-1.4.2c-.9-.3-1.4-.2-1 .3.3.5 0 1.1-.7 1.3-.7.3-.5.7.6 1.1.9.4 1.5.3 1.2-.2-.3-.5.1-1.2 1-1.5.8-.3 1.3-1 1-1.5-.4-.5 0-1.2.6-1.4 1-.4 1-.6.1-.6-.7-.1-1.4.2-1.4.6zM497 344c0 .5.5 1 1 1 .6 0 1-.5 1-1 0-.6-.4-1-1-1-.5 0-1 .4-1 1zM517 344.1c0 .5.5.7 1 .4.6-.3 1-.8 1-1.1 0-.2-.4-.4-1-.4-.5 0-1 .5-1 1.1zM514.7 346.1c.7.7 1.5 1 1.8.7.3-.3-.2-.9-1.2-1.2-1.4-.6-1.5-.5-.6.5zM518.5 346.1c-.3.4.2.6 1 .5 2.1-.3 2.8-1.3 1-1.3-.9 0-1.8.4-2 .8zM523.5 345.9c-.3.5-.2 1.2.3 1.5.5.3.9-.1.9-.9 0-1.7-.3-1.9-1.2-.6zM543.5 346c-.3.5-.1 1 .4 1 .6 0 1.1-.5 1.1-1 0-.6-.2-1-.4-1-.3 0-.8.4-1.1 1zM495.5 347c-.3.5-.1 1 .4 1 .6 0 1.1-.5 1.1-1 0-.6-.2-1-.4-1-.3 0-.8.4-1.1 1zM499 347.5c0 .8.4 1.5 1 1.5.5 0 .7-.7.4-1.5-.4-.8-.8-1.5-1-1.5-.2 0-.4.7-.4 1.5zM508.6 346.9c-1.7.6-1.7.8-.4 1.4 1 .3 1.9 0 2.2-.9.3-.8.4-1.4.3-1.3-.1 0-1.1.4-2.1.8zM511.9 348c-.3 2-.4 2.5-1.3 4-.7 1.2-.6 1.3.4.3 1.3-1.2 2.5-5.3 1.5-5.3-.3 0-.6.4-.6 1zM505.5 350.1c-.5.8-.4 1 .3.5.7-.4 1.2-.3 1.2.3 0 .5-.5 1.3-1 1.6-.6.4-.8 1.1-.5 1.6.8 1.2 3.5 1.2 3.5-.1 0-.5-.8-.6-1.7-.3-1.6.6-1.6.5-.4-1.1 1-1.2 1.1-2 .4-2.7-.8-.8-1.3-.7-1.8.2zM530.7 350.1c.7.7 1.5 1 1.8.7.3-.3-.2-.9-1.2-1.2-1.4-.6-1.5-.5-.6.5zM501.5 352.1c-1.1 1.6-.1 1.9 1.3.3.7-.8.8-1.4.3-1.4s-1.3.5-1.6 1.1zM516 352.4c0 .8.4 1.7.9 2 .5.4.7-.3.4-1.4-.6-2.3-1.3-2.6-1.3-.6zM524.2 352.2c-1.5 1.5-1.5 2.8 0 2.8.6 0 .8-.3.5-.7-.4-.3-.2-1.2.4-2 1.4-1.6.7-1.7-.9-.1z"/><path d="M497.2 356c-1.2 1.6-2.2 3.2-2.2 3.7 0 .4.6-.2 1.4-1.2 1.2-1.6 1.6-1.7 2.9-.6 1.8 1.4 4.1.6 3.1-1.1-.5-.7-.1-.9.9-.5 1 .3 1.7.2 1.7-.3s-1.1-.9-2.4-.8c-2.1.2-2.3.5-1.3 1.7 1 1.1.9 1.3-.3.9-.8-.3-1.5-1.5-1.4-2.7 0-1.1 0-2.1-.1-2.1s-1.1 1.3-2.3 3zM526.6 353.8c-.2.4.4.8 1.4.8 1 0 1.6-.4 1.4-.8-.3-.4-.9-.8-1.4-.8-.5 0-1.1.4-1.4.8zM510.2 356c0 1.4.2 1.9.5 1.2.2-.6.2-1.8 0-2.5-.3-.6-.5-.1-.5 1.3zM535 354.4c0 .2.8 1 1.8 1.7 1.5 1.3 1.6 1.2.3-.4s-2.1-2.1-2.1-1.3zM512.6 356.3c.3 1 .9 1.5 1.2 1.2.3-.3 0-1.1-.7-1.8-1-.9-1.1-.8-.5.6zM523.4 356.9c.4.5 0 1.1-.6 1.4-.7.3-.3.4.9.4 1.7-.1 1.9-.4 1.1-1.4-1.2-1.5-2.2-1.8-1.4-.4zM506 357.4c0 .2.7.6 1.5 1 .8.3 1.5.1 1.5-.4 0-.6-.7-1-1.5-1s-1.5.2-1.5.4zM515 358c0 .5.7.7 1.5.4.8-.4 1.5-.8 1.5-1 0-.2-.7-.4-1.5-.4s-1.5.4-1.5 1zM502.6 359.6c-1.1.8-1.6 1.4-1 1.4 1.3 0 3.9-1.8 3.4-2.4-.3-.2-1.4.2-2.4 1zM505.6 360.5c-.5 1.5 3 4.2 4.2 3.1.3-.3 0-.6-.7-.6s-.9-.4-.6-1c.3-.6-.1-.7-1-.4-1.1.5-1.4.2-.9-1 .3-.9.4-1.6.1-1.6-.3 0-.7.7-1.1 1.5zM510.1 360.6c0 1.1.3 1.4.6.6.3-.7.2-1.6-.1-1.9-.3-.4-.6.2-.5 1.3zM516.5 360c-.3.6.1.7.9.4 1.8-.7 2.1-1.4.7-1.4-.6 0-1.3.4-1.6 1zM513.3 362.7c-.7 1.8.5 4.5 1.6 3.8.5-.3 1.2.5 1.4 1.7.5 2 .5 2 .3-.2-.1-1.4-.7-2.4-1.4-2.3-.6.2-1.2-.6-1.2-1.6 0-1.4.5-1.8 1.9-1.4 1 .3 2.1.1 2.4-.4.3-.4-.6-.8-2-.8s-2.8.6-3 1.2z"/><path d="M519.1 363c-1.3 1.1-1.9 2-1.3 2 1 0 4.2-2.7 4.2-3.6 0-.7-.4-.5-2.9 1.6zM526.6 362.4c.6 1.5.4 1.7-.6 1.1-.9-.6-1.1-.4-.5.4.5.9 1 1 1.8.2s.7-1.4-.2-2.4c-1-1-1.1-.8-.5.7zM523 365.9c0 .6.4 1.2.8 1.5.5.3.9-.1.9-.9s-.4-1.5-.9-1.5c-.4 0-.8.4-.8.9zM465.9 368.6c-.7.8-1.8 1.3-2.5 1-.8-.3-1.3-.2-1.3.2.3 2.1-.2 3.2-1.3 2.6-.7-.5-.8-.3-.4.5 1 1.5-2.3 4.1-4.1 3.4-1.1-.4-1.1-.8-.2-2 1-1.1 1-1.3-.1-1.1-.8.2-3 2.1-4.9 4.3-2 2.2-4.5 4.9-5.6 6.1-3.6 3.7-8.5 9.3-8.5 9.8 0 .2-2.1 2.5-4.7 5-2.5 2.5-4.3 4.6-4 4.6.4 0-.1.8-1 1.8-1 1.1-2.1 1.7-2.5 1.5-.5-.2-.8 0-.8.5s-1.2 2.1-2.7 3.6c-2.3 2.3-2.5 2.9-1.3 3.7 1.2.8 1.1.9-.5.7-1.2-.2-1.9.2-1.7 1 .1.6-.2 1.1-.6 1-.9-.3-7.2 5.3-7.2 6.4 0 .6-2.2 3.1-10.6 12-2 2.1-3.3 4.2-2.9 4.8.3.6 0 .7-1 .4-.9-.4-1.5-.3-1.3.2.1.5-2.3 3.6-5.4 6.8-3.2 3.2-5.5 6.3-5.1 6.9.3.6.2.7-.4.4-.5-.3-1.7.3-2.7 1.4-1.4 1.7-1.5 2.3-.4 3.7 1.1 1.5 1.1 1.5-.3.4-1.3-1-1.8-1-2.8.1-.6.8-.7 1.8-.3 2.2.4.5.2.5-.4.2-.6-.4-2.6 1.2-4.5 3.5s-4.4 5-5.6 6.1c-1.2 1.1-2 2.4-1.7 2.9.3.5.2.7-.3.6-.4-.2-.9.1-1 .6 0 .5-.8 1.3-1.7 1.8-.9.5-1.3 1.4-1 2 .4.6.3.8-.3.5-.5-.3-2.9 1.6-5.1 4.2-2.3 2.7-5.5 6.3-7.2 8.1-1.6 1.8-2.7 3.7-2.3 4.3.3.5.2.7-.3.4-.6-.3-3.2 1.9-5.9 5-2.8 3.1-6.2 6.7-7.7 8.1-1.6 1.4-2.8 2.9-2.8 3.3 0 .5-1.5 2.3-3.2 4.1-6.8 6.9-18.3 20-19 21.6-.4 1-.7 1.2-.7.7-.1-.6-.4-.5-.9.1-.4.7-3.6 4.4-7.2 8.4s-6.4 7.7-6.2 8.2c.1.5-.2.7-.7.4-.9-.6-4.7 4.4-4.3 5.7.1.5-.2.6-.7.3-.5-.4-1.9.6-3 2-1.8 2.3-6.5 7.5-21.6 24.4-4.1 4.5-16.9 18.8-21 23.4-.5.6-4.1 4.7-8 9.1-3.8 4.4-9 10.2-11.6 13-2.5 2.7-6.6 7.2-9 10-2.4 2.7-4.6 5.2-4.9 5.5-.3.3-2.1 2.3-4 4.4-3.4 3.8-3.4 3.9-.5 1.8 1.7-1.1 4.6-3.6 6.6-5.4 1.9-1.8 7-6.5 11.4-10.3 4.3-3.9 8.3-7.5 8.9-8 .6-.6 5.2-4.6 10.1-8.9 5-4.4 10.6-9.4 12.5-11.2 4.8-4.5 11.1-10.1 16.6-14.9 2.6-2.2 5.4-4.7 6.3-5.5.9-.9 5.4-4.9 10.1-9 4.7-4.1 9.9-8.9 11.6-10.5 1.7-1.7 5.5-5 8.4-7.5 3-2.5 7.6-6.6 10.4-9.1 10.7-9.7 12.1-10.9 12.9-10.9.4 0 .5-.5.2-1-.3-.6-.1-1 .5-1s2.1-1 3.4-2.3c1.2-1.2 5.6-5.1 9.7-8.7 4.1-3.6 9-7.9 10.9-9.7 1.9-1.7 5.8-5.2 8.5-7.6 2.8-2.5 6.8-6.1 9-8.1 2.2-1.9 4.4-3.6 4.9-3.6.4 0 .6-.7.3-1.5-.4-.8-.1-1.7.5-2.1.7-.4.8-.3.4.4-1.6 2.6 1.1 1 4.7-2.8 2-2.2 3.7-3.7 3.7-3.4 0 .4 1.7-1 3.7-3 2.1-2 4.1-3.6 4.6-3.6s.6-.7.3-1.6c-.3-.8-.2-1.2.4-.9.5.3 2.9-1.2 5.2-3.4 2.4-2.1 6-5.3 8-7.1 2.1-1.8 3.5-3.7 3.1-4.3-.3-.5-.1-.7.4-.4 1.4.9 6.5-3.2 5.7-4.5-.4-.6-.2-.8.3-.5 1.3.8 4.6-2.7 3.6-3.7-.4-.4.1-.4 1.2 0 1.4.6 1.7.4 1.3-.8-.4-1-.1-1.5 1-1.4.9 0 1.6-.4 1.5-1-.1-.7.9-1.5 2.3-1.8 1.8-.5 2.4-1.2 2-2.3-.5-1.1-.2-1.4 1-.9 1.2.4 1.5.2 1.1-.9-.4-.8-.1-1.7.5-2.1.7-.5.8-.2.3.6s-.3 1.1.6.8c.8-.3 1.3-1.1 1.1-1.7-.1-.7.1-1 .6-.7.5.3 1.6-.3 2.4-1.2.9-.9 3.2-3 5.1-4.6 2-1.7 3.3-3.4 3-3.9-.3-.6-.1-.7.4-.4.6.4 1.6.1 2.2-.7.7-.8.8-1.6.4-1.8-.4-.3-.2-.3.5-.1.7.1 3-1.3 5-3.2 2-1.9 4.1-3.5 4.6-3.5s.3-.6-.3-1.4c-1-1.2-.9-1.4.7-1 1 .3 2.4-.2 3.1-1 1.1-1.3 1.1-1.9 0-3.4-1.3-1.5-1.2-1.6.4-.3 1.5 1.2 2.1 1.1 4.2-.9 1.3-1.3 2.2-2.7 1.9-3.1-.3-.5.1-.6.9-.4 1.7.7 5.1-3 4.1-4.6-.4-.8-.3-1 .5-.5 1.9 1.2 5.8-2.6 5.4-5.4-.3-2.4-.3-2.4 1.1-.5 1.4 1.9 1.5 1.9 2.1.2.4-.9 1.3-1.7 2-1.7.8 0 1.6-.8 2-1.8.3-1.1 1.7-2.4 3.2-3.1 1.8-.9 2.3-1.5 1.5-2.3-.6-.6-.8-1.7-.5-2.6.5-1 .2-1.3-.6-.8-.7.5-1 1.4-.7 2.2.4 1.1.2 1.2-1.4.4-2.2-1.2-3.3-1.3-2.6-.2.7 1.2-1.2 3.8-2.1 2.9-.4-.5-.2-1.1.4-1.5.9-.6.7-1.1-.7-2-1.9-1.1-2-.6-1.1 5 0 .4.7.5 1.5.2 1.8-.7 3 1.2 1.5 2.2-.8.4-.9.3-.5-.4s.2-1.2-.3-1.2c-.6 0-1.1.6-1.1 1.4 0 .8-.5 1.8-1.1 2.2-.8.4-.9-.1-.4-1.6s.4-2-.4-1.6c-.6.4-.9.2-.5-.7.3-.8-.2-1.4-1.1-1.4-.9 0-1.4.6-1.1 1.4.7 1.8-.4 4.4-1.6 3.7-.6-.4-.5-1 .3-1.5.7-.4 1.1-1.1.8-1.4-.9-.9-4 .6-3.3 1.6.3.5 0 .9-.5.9-.6 0-1.1-.5-1.1-1.1 0-.5-.4-.7-1-.4-.5.3-1 .1-1-.5 0-.7.7-.9 1.6-.6 1.7.6 7.1-4.1 5.9-5.2-.3-.4-1.5.4-2.5 1.8-1.4 1.9-2.2 2.2-3.1 1.3-1.4-1.4-.2-3.6 1.7-2.9.7.3 1.6.1 1.9-.4.4-.6.1-1-.6-1-.8 0-.8-.4.1-1.5 2.1-2.5-.3-1.6-2.9 1.1-1.8 1.9-2.6 2.2-3.2 1.2-.5-.7-.6-2.2-.2-3.3.5-1.7.4-1.8-.9-.7-1.3 1-1.7 1-2.2-.4-.3-.9-.3-2.1.1-2.7.4-.7 0-.8-1.1-.4-1 .4-2 .7-2.2.7-.2 0-.4.7-.4 1.5s-.5 1.5-1 1.5c-.7 0-.7-.8.1-2.2 1-1.8.8-2.4-.7-3.5-1-.7-2.1-1.3-2.6-1.3-.4 0-.8-.5-.8-1 0-.6 1-.4 2.3.5 1.3.8 2.7 1.2 3.2.8.4-.5.5-.3.1.4-.3.6-.1 1.5.5 1.8.7.5.9-.1.7-1.6-.2-1.4-.9-2.3-1.7-2.1-1.5.3-4.1-1.6-4.1-2.9 0-.5.5-.9 1-.9.6 0 .9.5.8 1.1-.2.6.3 1.4 1 1.6 2 .7 1-2-1.3-3.5-1.4-1-1.5-1.2-.3-.8 1.4.4 1.6-.1 1.3-2.5-.2-1.6 0-2.7.5-2.4.4.3 1.3-.1 1.9-.9.9-1.1.9-1.5-.1-1.9-.7-.2-.9-.8-.5-1.3s1.2-.2 1.7.6c.9 1.3 1 1.3 1.1 0 .1-.8.1-1.8.1-2.1-.1-.3.6-.6 1.3-.6 1.1 0 1.2.4.4 1.4-.6.7-.8 1.3-.3 1.3s.1.5-.8 1.1c-.9.5-1.5 1.6-1.2 2.4.4.8 1 1.2 1.5.9.5-.3.7-.9.4-1.4-.3-.5-.1-1.2.5-1.5.6-.4.9-.1.8.7-.2.7.3 1.2 1 1 .6-.1 1.2.1 1.2.6 0 .4 1.4.8 3 .8 3.2.2 3.8-.7 1.7-2.5-1-.8-1.7-.7-2.5.1-.9.9-1.6.8-2.8-.4-1.6-1.6-1.1-4.3.7-3.3 2.1 1.3.7-.4-1.5-1.8-2.2-1.5-2.6-1.5-3.7-.1zm9.5 6.2c.3.5-.1.9-.9.9s-1.2-.4-.9-.9c.3-.4.7-.8.9-.8.2 0 .6.4.9.8zM456 377c1.2.8 1 1-.9.8-1.3-.2-2.5.2-2.8.7-.6 1.9 4.6 1 6.2-1 1-1.3 1.4-1.5 1.3-.5-.2.8-.7 1.8-1.3 2.2-.5.4-1 1.3-1.1 2 0 .7-.2 2.1-.2 3-.1 1-.7 1.8-1.2 1.8-.7 0-.7-.7 0-2.1.7-1.1 1-2.2.8-2.4-.9-.9-5.8-1.3-5.8-.4 0 .5-.5.9-1.1.9-.6 0-.1-1.4 1.1-3 2.3-3.3 2.8-3.4 5-2zm-1.7 5.6c-.7.3-1 1.1-.7 1.9.3.7-.4 1.8-1.5 2.5-1.1.6-2 1.6-1.8 2.2.1.6-.5 1.3-1.3 1.5-1.2.4-1.2.3-.2-.5.8-.5 1.3-1.2 1.3-1.6-.1-1.5 1.2-3.5 2-3 .5.3.9 0 .9-.5 0-.6-.6-1.1-1.2-1.1-.9 0-.8-.4.2-1 .8-.5 2-.9 2.5-.9.6 0 .5.3-.2.5zM450 384c0 .5-.4 1-1 1-.5 0-1-.5-1-1 0-.6.5-1 1-1 .6 0 1 .4 1 1zm-2 2c1.3.8 1.3 1-.2 1-.9 0-2-.5-2.3-1-.8-1.3.5-1.3 2.5 0zm-4.3 2.1c-.9.6-1.4 1.5-1.1 2.1.4.7.2.8-.5.4-1.4-.9.3-3.6 2.3-3.6.6 0 .3.5-.7 1.1zm13.8-.5c1.4.6 1.3.8-.5 2.1-2 1.4-2.4 1.4-3.8-.2-1-1-1.1-1.5-.4-1.1.6.4 1.2.2 1.2-.3 0-1.2 1.1-1.4 3.5-.5zm-11.7 2.8c-.2.4.8 1.3 2.1 2.1 1.4.7 2.6 2 2.7 2.9.1.9-.2 1.4-.7 1-.5-.3-.7-.9-.4-1.3.2-.5-.7-1.3-2.1-2-1.4-.6-2.3-1.5-2-2 .4-.5.1-1.2-.4-1.4-.7-.4-.6-.5.1-.4.6.2.9.6.7 1.1zm14.5.3c-.7.2-1.1 1-.9 1.6.1.7.1.9-.1.4-.3-.4-.9-.5-1.4-.1-.5.3-.9.2-.9-.2 0-1 3.4-3.3 4-2.7.3.3 0 .8-.7 1zm-18.4 1.7c.9 1.1.9 1.6 0 2.2-.8.4-.9.3-.5-.4s.2-1.2-.3-1.2c-.6 0-1.1-.5-1.1-1 0-1.4.5-1.3 1.9.4zm12.1-.4c1.2.7 1 .9-.8.7-1.2 0-2.2-.5-2.2-.9 0-1.1 1.2-1 3 .2zm-9.9 3.7c-1.2 2-1.4 1.4-.5-1.2.4-.9.9-1.4 1.1-1.1.3.2 0 1.3-.6 2.3zm22.3-.5c1.4 1.6 1.5 2 .3 1.5-.8-.3-2.4.1-3.6.9-2.4 1.7-2.8 1-.7-1.1.7-.8 1.7-1.1 2.1-.7.5.4.5-.1.2-1.1-.8-2.2-.5-2.2 1.7.5zm-12.4 2.3c0 .5-.5.3-1-.5s-1-2-1-2.5c0-.6.5-.3 1 .5s1 1.9 1 2.5zm4.7-1.8c.2.6-.5 1.7-1.6 2.3-1.4.7-2.1.7-2.1 0 0-.5.7-1 1.5-1s1.5-.5 1.5-1.1c0-.6-.7-.9-1.5-.5-.8.3-1.5.1-1.5-.5 0-1.4 3.2-.7 3.7.8zm-9.9 2.9c-.4.3-1.2-.5-1.8-1.8-1.2-2.2-1.2-2.2.6-.6 1 1 1.5 2 1.2 2.4zm-12.1-1.1c0 .8-.4 1.2-.9.9-.5-.3-.6-1-.3-1.5.9-1.3 1.2-1.1 1.2.6zm4 1.1c-.3.3-1.2.4-1.9.1-.8-.3-.5-.6.6-.6 1.1-.1 1.7.2 1.3.5zm10.6.7c.3.8-.1 1.4-.8 1.4-.7 0-1.1-.6-.8-1.4.3-.7.6-1.3.8-1.3.2 0 .5.6.8 1.3zm9.2 2.7c-.4.6-1 .8-1.5.5-.5-.3-1 .3-1.3 1.2-.3 1.4-.4 1.3-.3-.2.1-1.1.7-1.9 1.4-1.7 1 .2 1.2-.4.7-2-.5-2-.4-2.1.5-.5.6.9.8 2.2.5 2.7zm5.2-1.8c-.3.8-.6.5-.6-.6-.1-1.1.2-1.7.5-1.3.3.3.4 1.2.1 1.9zm3.3-1.5c0 .5-.5 1.5-1 2.3-.7 1.2-.9 1-.7-.8.1-1.9 1.7-3.3 1.7-1.5zm-21.5 1.3c.3.6-.1.7-.9.4-1.8-.7-2.1-1.4-.7-1.4.6 0 1.3.4 1.6 1zm10 0c-.3.5-1.2 1-1.8 1-.7 0-.6-.4.3-1 1.9-1.2 2.3-1.2 1.5 0zm7.9 2.3c.7.6.6.7-.4.4-.8-.2-1.6-1.2-1.7-2.3-.2-1.3-.1-1.5.4-.4.3.8 1.1 1.9 1.7 2.3zm23.6-2.4c0 .5-.7 1.1-1.4 1.4-1 .4-1.3.1-.9-.9.6-1.5 2.3-1.9 2.3-.5zm-19.9 3.2c-1.3 1-2.8 1.9-3.5 1.9-.6 0-.2-.6.9-1.2s2.4-1.8 2.8-2.5c.5-.8 1.2-1.2 1.5-.8.4.4-.4 1.5-1.7 2.6zm-23.9.1c-.2 1-.9 2.1-1.5 2.5-.6.3-.7.1-.3-.6.4-.6.3-1.7-.3-2.4-.7-.9-.5-1.3.8-1.3 1.2 0 1.7.6 1.3 1.8zm9.8 0c.9 1.9.9 2.1-.2.8-.7-.9-2.2-1.4-3.3-1.3l-2 .3 2-.9c1.1-.5 2.1-1 2.2-1 .1-.1.7.9 1.3 2.1zm-20.4.8c0 1.2-.4 1.6-.9 1.1s-.6-1.4-.3-2c1-1.5 1.2-1.4 1.2.9zm4.4-1.6c0 .2-.8 1-1.7 1.7-1.6 1.3-1.7 1.2-.4-.4 1.3-1.6 2.1-2.1 2.1-1.3zm9.1 2.9c-1 .9-1.1.8-.5-.6.3-1 .9-1.5 1.2-1.2.3.3 0 1.1-.7 1.8zm15.4-1.3c.3.6-.1.7-.9.4-1.8-.7-2.1-1.4-.7-1.4.6 0 1.3.4 1.6 1zm-34 2c.3.6-.1.7-.9.4-1.8-.7-2.1-1.4-.7-1.4.6 0 1.3.4 1.6 1zm12-.1c-.9.8-3.6 1-3 .2.2-.4 1.1-.8 2-.8.8 0 1.3.3 1 .6zm13.1 1.6c.2 1.2-.2 1.2-1.7.5-2.3-1.3-2.5-2.2-.2-1.3 1.2.5 1.4.3.8-.8-.5-.8-.4-1.1 0-.6.5.4 1 1.4 1.1 2.2zm7.7-.7c-.4 1.5 1.3 1.6 2 .2.3-.6.4-.5.3.2-.2.7-.9 1.3-1.7 1.3-.8 0-1.3-.6-1.1-1.4.2-.8-.3-1.1-1.3-.8-.8.4-1.5.2-1.5-.4 0-.6.8-.9 1.8-.7.9.2 1.6 1 1.5 1.6zm10.3.9c-.6.6-3.6-.9-3.6-1.8 0-.5.9-.4 2 .3 1 .7 1.8 1.4 1.6 1.5zm-25.2.2c1.4 1.5 1.5 2.1.4 2.7-.7.4-1 .3-.5-.1.4-.5 0-1.7-1-2.7-.9-1-1.4-1.8-1.1-1.8.3 0 1.3.9 2.2 1.9zm21.7.6c.5-.3.6.1.2 1-.5 1.3-.7 1.4-1.4.3-.5-.7-.8-2-.8-2.8.1-1.1.3-1 .6.3.2.9.9 1.5 1.4 1.2zm-24.1 1c1.4 1.9 1.4 1.9-.2.6-1-.7-1.8-1.8-1.8-2.4 0-.6.1-.8.3-.6.1.2.9 1.3 1.7 2.4zm13-1.5c0 .5-.5 1-1.1 1-.5 0-.7-.5-.4-1 .3-.6.8-1 1.1-1 .2 0 .4.4.4 1zm17.4.5c-.7 1.7 1.1 2.1 1.9.5.3-.6.4-.5.3.2-.4 1.9-3 1.6-3.4-.5-.2-.9.1-1.7.7-1.7s.8.7.5 1.5zm-14.7 2c0 .8-.4 1.2-.9.9-.4-.3-.8-.9-.8-1.5 0-.5.4-.9.8-.9.5 0 .9.7.9 1.5zm6.3 1.1c0 .8-.4 1.4-1 1.4-.5 0-.6-.7-.3-1.7.5-1.2.3-1.4-.7-.8-.9.5-1.1.4-.6-.4.9-1.4 2.6-.5 2.6 1.5zm-34.3-.2c0 1.5-2.1 1.6-3.4.1-.4-.4-.3-.5.4-.1.6.3 1.4.2 1.8-.4.8-1.4 1.2-1.3 1.2.4zm10.2-.1c.8 1 .7 1.4-.2 1.4-.8 0-1.4-.6-1.4-1.4 0-.7.1-1.3.2-1.3.2 0 .8.6 1.4 1.3zm7.1.2c-.7.8-1.7 1.5-2.3 1.5-.6 0-.2-.7.9-1.5 2.5-1.9 3-1.9 1.4 0zm-12.4.7c.3.4-.1.5-1 .4-.8-.1-1.8-.5-2.2-.8-.3-.4.1-.5 1-.4.8.1 1.8.5 2.2.8zm15.1-.5c-.4.3-.3 1.1.3 1.7.6.8.2 1.2-1.3 1.3-1.7.2-1.9 0-.7-.7.8-.5 1.1-1 .7-1-.9 0 .1-2 1-2 .4 0 .3.3 0 .7zm19.5.1c-1.3.4-2.2 1.1-2.1 1.7.2.5-.6 1.1-1.7 1.2-1.8.3-1.8.2.1-.6 1.1-.5 1.6-1 1.2-1-1.9-.2.6-2.1 2.6-2 2.2.1 2.2.1-.1.7zm-6.7 2.4c.6.5 0 .7-1.2.5-1.2-.2-2.6-.7-3-1.2-.5-.4-.2-.5.5-.1s1.2.2 1.2-.5.3-.8.8-.3c.4.5 1.2 1.2 1.7 1.6zm-41 .6c-.3.3-1.1 0-1.8-.7-.9-1-.8-1.1.6-.5 1 .3 1.5.9 1.2 1.2zm6.3 1.7c-.3.3-.9-.2-1.2-1.2-.6-1.4-.5-1.5.5-.6.7.7 1 1.5.7 1.8zm7.9-1c0 .8-.4 1.5-.9 1.5-1 0-1.1-1.4-.1-2.3.9-1 1-.9 1 .8zm18.5-.8c-.6.2-1 .8-.8 1.2.3.4-.1.8-.9.8-1.1 0-1.2-.4-.4-1.4.6-.7 1.7-1.3 2.3-1.2.7 0 .6.2-.2.6zm-22.2 1.2c0 .6-.4 1.2-.8 1.5-.5.3-.9-.1-.9-.9s.4-1.5.9-1.5c.4 0 .8.4.8.9zm37 .1c-.8.5-1.9 1-2.5 1-.5 0-.3-.5.5-1s2-1 2.5-1c.6 0 .3.5-.5 1zm-10.8 3.2c-.2 1-.9 2.1-1.5 2.5-.6.3-.7.1-.3-.6.4-.6.3-1.7-.3-2.4-.7-.9-.5-1.3.8-1.3 1.2 0 1.7.6 1.3 1.8zm-10.6.8c0 1.2-.4 1.6-.9 1.1s-.6-1.4-.3-2c1-1.5 1.2-1.4 1.2.9zm4.4-1.6c0 .2-.8 1-1.7 1.7-1.6 1.3-1.7 1.2-.4-.4 1.3-1.6 2.1-2.1 2.1-1.3zm10.4 1.2c.3.8.2 1.2-.4.9-.6-.3-1-1-1-1.6 0-1.4.7-1.1 1.4.7zm-22.8.6c.3.4-.1.5-1 .4-.8-.1-1.8-.5-2.2-.8-.3-.4.1-.5 1-.4.8.1 1.8.5 2.2.8zm-6.1 1.8c.3.5.1 1-.4 1-.6 0-1.1-.5-1.1-1 0-.6.2-1 .4-1 .3 0 .8.4 1.1 1zm3.6.7c1.3 1.6 1.2 1.7-.3.4-1.7-1.3-2.2-2.1-1.4-2.1.2 0 1 .8 1.7 1.7zm17.4-.8c-.9.8-3.6 1-3 .2.2-.4 1.1-.8 2-.8.8 0 1.3.3 1 .6zm-36.4 1.8c1.3 1.6 1.2 1.7-.3.4-1-.7-1.8-1.5-1.8-1.7 0-.8.8-.3 2.1 1.3zm11.9-.1c0 .8-1.9 1.3-2.4.6-.3-.5.1-.9.9-.9s1.5.2 1.5.3zm16.1.7c-.6.8-.7 1.8-.3 2.2.4.5.1.5-.6.1-1-.6-1-1.1-.1-2.2.6-.8 1.4-1.4 1.6-1.4.3 0 0 .6-.6 1.3zm11.5-.1c.4.7.4 1-.1.6-.4-.4-1.5-.2-2.4.5-1.4 1.1-1.4 1-.2-.6 1.6-2 1.8-2.1 2.7-.5zm-35.1 1.8c.3.6-.1.7-.9.4-1.8-.7-2.1-1.4-.7-1.4.6 0 1.3.4 1.6 1zm-12.1 1.8c.3.5-.1.9-.9.9s-1.2-.4-.9-.9c.3-.4.7-.8.9-.8.2 0 .6.4.9.8zm27.6-.4c0 .2-.7.7-1.6 1-.8.3-1.2.2-.9-.4.6-1 2.5-1.4 2.5-.6zm12.6.8c.3.4-.1.5-1 .4-.8-.1-1.8-.5-2.2-.8-.3-.4.1-.5 1-.4.8.1 1.8.5 2.2.8zm-36.9 2.3c0 .8-.4 1.2-.9.9-.5-.3-.6-1-.3-1.5.9-1.3 1.2-1.1 1.2.6zm38.3-.1c0 .2-.8 1-1.7 1.7-1.6 1.3-1.7 1.2-.4-.4 1.3-1.6 2.1-2.1 2.1-1.3zm-4.3 2.1c0 .8-.4 1.2-.9.9-.4-.3-.8-.9-.8-1.5 0-.5.4-.9.8-.9.5 0 .9.7.9 1.5zm-21.2 1.5c.3.6-.1.7-.9.4-1.8-.7-2.1-1.4-.7-1.4.6 0 1.3.4 1.6 1zm-27 4c.3.5.1 1-.4 1-.6 0-1.1-.5-1.1-1 0-.6.2-1 .4-1 .3 0 .8.4 1.1 1zm.5 3.4c0 .3-.4.8-1 1.1-.5.3-1 .1-1-.4 0-.6.5-1.1 1-1.1.6 0 1 .2 1 .4zm0 4c0 .3-.4.8-1 1.1-.5.3-1 .1-1-.4 0-.6.5-1.1 1-1.1.6 0 1 .2 1 .4zm4 0c0 .3-.4.8-1 1.1-.5.3-1 .1-1-.4 0-.6.5-1.1 1-1.1.6 0 1 .2 1 .4zm21.4 3.6c-.6.6-1 .3-1-1s.4-1.6 1-1c.7.7.7 1.3 0 2zm-31.4-1c0 .5-.4 1-1 1-.5 0-1-.5-1-1 0-.6.5-1 1-1 .6 0 1 .4 1 1zm-6.5 2c.3.5.1 1-.4 1-.6 0-1.1-.5-1.1-1 0-.6.2-1 .4-1 .3 0 .8.4 1.1 1zm20 0c.3.5.1 1-.4 1-.6 0-1.1-.5-1.1-1 0-.6.2-1 .4-1 .3 0 .8.4 1.1 1zm12 0c.3.5.1 1-.4 1-.6 0-1.1-.5-1.1-1 0-.6.2-1 .4-1 .3 0 .8.4 1.1 1zm-26 1.9c.3.5.2 1.2-.3 1.5-.5.3-.9-.1-.9-.9 0-1.7.3-1.9 1.2-.6zM407 454c0 .5-.2 1-.4 1-.3 0-.8-.5-1.1-1-.3-.6-.1-1 .4-1 .6 0 1.1.4 1.1 1zm3.5 0c.3.5.1 1-.4 1-.6 0-1.1-.5-1.1-1 0-.6.2-1 .4-1 .3 0 .8.4 1.1 1zm-23.9 3.6c.1.9 0 1.3-.4 1-.3-.4-.7-1.4-.8-2.2-.1-.9 0-1.3.4-1 .3.4.7 1.4.8 2.2zm10.4-.1c0 .7-3 1.3-3.4.7-.3-.4.4-.9 1.5-.9 1-.1 1.9 0 1.9.2zm8 2.1c0 .8-1.9 1.3-2.4.6-.3-.5.1-.9.9-.9s1.5.2 1.5.3zm-8 2.9c0 .2-.9.3-1.9.2-1.1 0-1.8-.5-1.5-.9.4-.6 3.4 0 3.4.7zm14-.5c0 .5-.2 1-.4 1-.3 0-.8-.5-1.1-1-.3-.6-.1-1 .4-1 .6 0 1.1.4 1.1 1zm3.5 0c.3.5.1 1-.4 1-.6 0-1.1-.5-1.1-1 0-.6.2-1 .4-1 .3 0 .8.4 1.1 1zm-31.5 2c0 .5-.5 1-1.1 1-.5 0-.7-.5-.4-1 .3-.6.8-1 1.1-1 .2 0 .4.4.4 1zm3.4 1.8c.3.5-.1.9-.9.9s-1.2-.4-.9-.9c.3-.4.7-.8.9-.8.2 0 .6.4.9.8zm4.6.2c0 .5-.5 1-1.1 1-.5 0-.7-.5-.4-1 .3-.6.8-1 1.1-1 .2 0 .4.4.4 1zm20-.6c0 .3-.4.8-1 1.1-.5.3-1 .1-1-.4 0-.6.5-1.1 1-1.1.6 0 1 .2 1 .4zm4 .6c0 .5-.5 1-1.1 1-.5 0-.7-.5-.4-1 .3-.6.8-1 1.1-1 .2 0 .4.4.4 1zm-14.4 1.5c-.1.8-.5 1.7-.8 2.1-.5.4-.4-1.6.1-3.4.3-.9.9.1.7 1.3zM395 470c0 .5-.5 1-1.1 1-.5 0-.7-.5-.4-1 .3-.6.8-1 1.1-1 .2 0 .4.4.4 1zm11.7 3.5c0 .8-.4 1.2-.9.9-.5-.3-.6-1-.3-1.5.9-1.3 1.2-1.1 1.2.6zm-28.3.3c.3.5-.1.9-.9.9s-1.2-.4-.9-.9c.3-.4.7-.8.9-.8.2 0 .6.4.9.8zm12.2.7c-.1.8-.5 1.7-.8 2.1-.5.4-.4-1.6.1-3.4.3-.9.9.1.7 1.3zm12.8-.7c.3.5-.1.9-.9.9s-1.2-.4-.9-.9c.3-.4.7-.8.9-.8.2 0 .6.4.9.8zm-20.9 2.2c.3.5.1 1-.4 1-.6 0-1.1-.5-1.1-1 0-.6.2-1 .4-1 .3 0 .8.4 1.1 1zm16 1.9c-.9.8-3.6 1-3 .2.2-.4 1.1-.8 2-.8.8 0 1.3.3 1 .6zm-29.1 1.9c.3.5-.1.9-.9.9s-1.2-.4-.9-.9c.3-.4.7-.8.9-.8.2 0 .6.4.9.8zm23.3.7c0 .8-.4 1.2-.9.9-.5-.3-.6-1-.3-1.5.9-1.3 1.2-1.1 1.2.6zm-13.2 3.5c.3.6-.1.7-.9.4-1.8-.7-2.1-1.4-.7-1.4.6 0 1.3.4 1.6 1zm4.8 1.5c-.3.9-.8 1.4-1 1.1-.3-.3-.2-.9.2-1.5.9-1.6 1.5-1.3.8.4zm4.7.5c0 .5-.2 1-.4 1-.3 0-.8-.5-1.1-1-.3-.6-.1-1 .4-1 .6 0 1.1.4 1.1 1zm-8.5 3.9c.3.5.2 1.2-.3 1.5-.5.3-.9-.1-.9-.9 0-1.7.3-1.9 1.2-.6zm4.5.1c0 .5-.5 1-1.1 1-.5 0-.7-.5-.4-1 .3-.6.8-1 1.1-1 .2 0 .4.4.4 1z"/><path d="M454.5 389c-.3.5-.2 1 .4 1 .5 0 1.3-.5 1.6-1 .3-.6.2-1-.4-1-.5 0-1.3.4-1.6 1zM519.5 368.1c-1.1 1.6-.1 1.9 1.3.3.7-.8.8-1.4.3-1.4s-1.3.5-1.6 1.1zM509 369.6c0 .7 2.7 3.4 3.4 3.4 1.3 0 .5-1.6-1.4-2.8-1.1-.7-2-1-2-.6zM523 370.1c0 .5.5.7 1 .4.6-.3 1-.8 1-1.1 0-.2-.4-.4-1-.4-.5 0-1 .5-1 1.1zM507.4 371.7c.4.7.2 1.3-.3 1.3-.6 0-1.1.5-1.1 1.1 0 .8.5.8 1.5-.1 1.3-1.1 1.5-.9 1.3 1.1-.2 1.8.2 2.4 1.7 2.4 1.1 0 2.6.4 3.3.8.7.5 1.2.4 1.2-.2 0-.6-.4-1.1-1-1.1-.5 0-.8-.6-.6-1.3.1-.6.1-.8-.2-.4-.2.5-1.8-.4-3.5-2-1.6-1.5-2.7-2.2-2.3-1.6zm3.6 4.3c0 .5-.4 1-1 1-.5 0-1-.5-1-1 0-.6.5-1 1-1 .6 0 1 .4 1 1zM517 372c0 .5.5 1 1 1 .6 0 1-.5 1-1 0-.6-.4-1-1-1-.5 0-1 .4-1 1zM518.9 374.7c-1.3 1.6-1.2 1.7.4.4 1.6-1.3 2.1-2.1 1.3-2.1-.2 0-1 .8-1.7 1.7zM515.6 375.5c.4.8.8 1.5 1 1.5.2 0 .4-.7.4-1.5s-.4-1.5-1-1.5c-.5 0-.7.7-.4 1.5zM463.2 376.3c-.8.9-.9 2.2-.4 3.8l.9 2.3 1.2-2.2c1.5-2.9.1-6.1-1.7-3.9zm1.8 1.7c0 .5-.4 1-1 1-.5 0-1-.5-1-1 0-.6.5-1 1-1 .6 0 1 .4 1 1zM466.4 379.2c-.9 1.8-2.1 3.6-2.6 3.9-.5.3-.1 1.2.8 2 1.4 1.1 1.8 1.1 3-.5.7-1.1 1.1-2.3.7-2.9-.3-.5-1.2.1-1.9 1.4-.7 1.3-1.3 2-1.4 1.6-.1-2.2 2.1-4.6 3.8-4 1.5.6 1.5.4.4-.9-1.1-1.4-1.1-1.6 0-1.4.7.1 1.9.6 2.7 1 1 .7 1.2.5.6-.3-.6-1-.3-1.1 1.4-.2 2.5 1.4 2.8 2.2.4 1.5-1.6-.5-1.6-.4-.2.5 1.2.8 1.6 2.2 1.3 4.8-.2 2.5 0 3.3.7 2.6 1.3-1.3 1.8-7.2.7-7.9-.5-.3-.6-1-.3-1.5.4-.5.3-.9-.2-1-.4-.1-2-.2-3.4-.3-1.4-.2-3.1-.6-3.7-1-.7-.4-1.8.7-2.8 2.6z"/><path d="M470.4 380.4c.1 1 1.1 2.5 2.1 3.2 1.1.8 1.3 1.4.6 1.4-.7 0-.9.5-.5 1.2.6 1 .3.9-.9 0-1.4-1.2-1.6-1.1-1.4.7.1 1.3.6 2 1.4 1.7.7-.3 1.7.3 2.3 1.4.8 1.5.5 2.3-1.7 3.9-1.4 1.2-2.3 2.5-1.9 2.9.4.4 1.6-.3 2.6-1.6 1-1.2 2.5-2.2 3.4-2.2.9 0 1.6-.5 1.6-1.1 0-.5-.5-.7-1.2-.3-.6.4-.8.3-.5-.3.4-.6 0-1.3-.8-1.6-1-.4-1.3-1.7-1.1-4.2.2-2 .2-3.4-.1-3.1-.3.3-1.4-.5-2.4-1.7-1.6-2-1.7-2-1.5-.3z"/><path d="M467.8 385.5c-2.2 3-2.2 3.2.1 4.5 1.8.9 2 .7 1.8-2.2-.1-2.3.2-3.2 1.1-3 .8.1 1.1-.2.7-.8-.9-1.5-1.8-1.2-3.7 1.5zM478.1 387.2c-.9 1.5-.9 2.3-.1 3.3s.8 1.9 0 3.6c-1 1.8-.9 2.4.3 3.1 1 .5 1.4 1.6 1.1 2.6-.5 1.4-.4 1.4.4.2.7-.9.7-1.8.1-2.6s-.5-1.4.5-1.7c.9-.4 1.8-.2 2.1.3.7 1.2 5 .6 6.9-.9 1.5-1.3 3.2.1 2.1 1.8-.3.6.3.9 1.4.8 1.4-.1 1.7-.5 1-1.3s-.6-1.5.2-2c.8-.4.9-.3.5.4s0 1.2 1 1.2c1.6 0 1.6-.1-.1-2-.9-1-2.2-1.8-2.9-1.7-.6.1-1-.3-.9-1 .2-.7-.6-1-1.9-.8-1.2.3-2.7 0-3.3-.5-.6-.5-2-.7-3-.5-1.1.2-2.2.4-2.5.4-.3.1.2.5 1 1.1.9.6 2 .5 2.9-.3 1.2-1 1.3-.9.6.2-.5.9-.4 1.2.3.7 1.4-.9 2.3.7 1.2 2.3-.5.9-1.3 1-2.1.5-2-1.2-3.9-1.4-3.9-.3 0 .6-.5.7-1.1.3-.8-.4-.7-.9.2-1.5 1.1-.6 1-1.2-.5-2.7-1.1-1.3-1.4-2.2-.7-2.7.6-.3 1.1-.3 1.1.1 0 .3.8 0 1.7-.7 1-.8 1.4-.9 1-.2-.4.6-.3 1.4.2 1.7 1.5 1 2.2-1 .8-2.2-1.9-1.5-4.3-1-5.6 1zm15.4 6.1c.4-.5.5-.2 0 .5-.5 1-1 1.1-1.8.3s-1.7-.6-3.1.7c-2.1 1.7-2.1 1.7-.3-.4.9-1.1 1.4-2.5 1-3-.5-.5.1-.1 1.3.9 1.1.9 2.4 1.4 2.9 1z"/><path d="M479.6 389.2c.3.5 1 .6 1.5.3 1.3-.9 1.1-1.2-.6-1.2-.8 0-1.2.4-.9.9zM471 390.5c-.9 1.1-1 1.9-.3 2.6 1.3 1.3 3.5-1.2 2.4-2.9-.6-1-1.1-.9-2.1.3zM467 392c0 .5.5 1 1 1 .6 0 1-.5 1-1 0-.6-.4-1-1-1-.5 0-1 .4-1 1zM484.6 393.2c.3.5 1 .6 1.5.3 1.3-.9 1.1-1.2-.6-1.2-.8 0-1.2.4-.9.9zM473 400c0 .5.5 1 1 1 .6 0 1-.5 1-1 0-.6-.4-1-1-1-.5 0-1 .4-1 1z"/></svg>