<svg version="1" xmlns="http://www.w3.org/2000/svg" width="1077.333" height="1077.333" viewBox="0 0 808.000000 808.000000"><path d="M782 16.4c-7.4 1.8-13.7 3.2-14 3.3-.3 0-2.4.6-4.8 1.2-2.3.7-4.7.9-5.2.6-.5-.3-1.1-.1-1.4.4-.3.5-2 1.2-3.8 1.5-3.7.7-6.9 1.4-9.8 2.1-5.1 1.3-6.6 1.6-8.5 2-3.4.6-7.2 1.5-16.3 3.6-4.8 1.2-9.8 2.3-11.1 2.6-1.4.2-2.8.6-3.2.9-.4.2 4.9 6.1 11.8 13l12.6 12.6L591 197.5 453.7 334.8l-3.1-2.1c-1.7-1.2-3.3-2.4-3.6-2.7-.7-.9-10.8-5.6-16.5-7.8-8.5-3.3-20.5-5.5-31.5-5.7-5.8-.1-10.9 0-11.4.3-.6.3-1.9.6-3 .7-10.9 1-28 8-38.1 15.8-22.5 17.3-34.2 42.7-33 71.7.3 5.8.9 12.3 1.4 14.5.5 2.2 1.2 5.1 1.5 6.5.9 3.9 5 14.4 6.6 17 .6.8 1.7 3.2 2.6 5.2.9 2.1 1.9 3.8 2.3 3.8.5 0 1.3 1.2 2 2.7 1.2 2.7-.2 4.1-156.1 160.1C87.3 701.4 15.2 773.5 13.5 775.1l-3 2.9 10.9 10.9 10.9 11 160.4-160.4c154.7-154.7 160.4-160.3 162.8-159.2 1.4.7 2.5 1.5 2.5 1.9 0 .5.6.8 1.4.8.8 0 1.6.4 1.8.8.4 1 13 7.1 15.8 7.6.3.1 1 .4 1.5.7 1.3.8 12.8 3.6 17.9 4.4 3.9.5 19.2.6 25.1.1 5.9-.6 23.4-6.2 24.6-7.9.3-.5.8-.8 1-.7.5.2 6.2-2.3 6.9-3 .3-.3 2.1-1.7 4-3 8.4-5.9 20-17.5 20-20 0-.6.3-1 .8-1 2.4 0 12.6-24 13.9-32.5.8-5.6.9-27.2.1-32-1.8-10.7-9.2-29.1-14.5-36.1-1.2-1.7-2.3-3.3-2.3-3.7 0-.3 61.7-62.2 137.1-137.6L750.2 82l12.4 12.5c6.9 6.9 12.6 12.5 12.8 12.5.3 0 3.9-14.8 5.1-20.8.2-1.2.6-2.5.8-3 .5-.6 1.4-5.2 2.2-10.7.2-1.1.4-2 .5-2 .1 0 .3-.7.5-1.5s1.7-7.6 3.5-15c1.7-7.4 3.3-14.4 3.5-15.5.2-1.1.4-2.1.6-2.3.5-.6 2.1-10.1 1.8-10.4-.1-.2.3-1.2.9-2.3 1.4-2.7 2.5-10.5 1.5-10.4-.4.1-6.9 1.5-14.3 3.3z"/></svg>