<?xml version="1.0" encoding="UTF-8" standalone="no"?><!DOCTYPE svg PUBLIC "-//W3C//DTD SVG 1.1//EN" "http://www.w3.org/Graphics/SVG/1.1/DTD/svg11.dtd"><svg width="100%" height="100%" viewBox="0 0 633 104" version="1.1" xmlns="http://www.w3.org/2000/svg" xmlns:xlink="http://www.w3.org/1999/xlink" xml:space="preserve" xmlns:serif="http://www.serif.com/" style="fill-rule:evenodd;clip-rule:evenodd;stroke-linejoin:round;stroke-miterlimit:1.41421;"><g id="Logo"><path d="M67.87,64.263c2.847,3.881 4.27,8.473 4.27,13.778c0,5.087 -1.434,9.584 -4.301,13.492c-2.867,3.908 -6.937,6.926 -12.209,9.053c-5.272,2.127 -11.192,3.191 -17.759,3.191c-7.307,0 -13.874,-1.214 -19.701,-3.642c-5.827,-2.428 -10.209,-5.885 -13.145,-10.371c-2.937,-4.486 -4.405,-9.781 -4.405,-15.885l3.746,0c0,8.278 3.098,14.706 9.295,19.284c6.197,4.579 14.267,6.868 24.21,6.868c8.833,0 16.117,-2.023 21.852,-6.07c5.734,-4.046 8.602,-9.307 8.602,-15.781c0,-4.301 -1.006,-7.943 -3.018,-10.926c-0.701,-1.04 -1.543,-2.037 -2.527,-2.991l5.09,0Zm549.861,0c2.434,0.233 4.658,0.979 6.672,2.228c2.497,1.549 4.445,3.746 5.844,6.59c1.399,2.844 2.11,6.047 2.133,9.608l0,1.664c0,3.608 -0.682,6.833 -2.046,9.678c-1.364,2.844 -3.301,5.064 -5.81,6.659c-2.509,1.596 -5.347,2.393 -8.515,2.393c-3.168,0 -6.006,-0.786 -8.515,-2.358c-2.509,-1.573 -4.457,-3.775 -5.845,-6.608c-1.387,-2.832 -2.092,-6.018 -2.115,-9.555l0,-1.665c0,-3.584 0.688,-6.804 2.063,-9.66c1.376,-2.856 3.319,-5.081 5.827,-6.677c2.009,-1.277 4.229,-2.043 6.661,-2.297l3.646,0Zm-54.608,36.427c0,-0.532 0.185,-0.988 0.555,-1.37c0.37,-0.382 0.821,-0.572 1.353,-0.572c0.531,0 0.988,0.19 1.37,0.572c0.381,0.382 0.572,0.838 0.572,1.37c0,0.532 -0.191,0.983 -0.572,1.353c-0.382,0.37 -0.839,0.555 -1.37,0.555c-0.532,0 -0.983,-0.185 -1.353,-0.555c-0.37,-0.37 -0.555,-0.821 -0.555,-1.353Zm-462.758,-36.427l3.746,0l0,38.127l-3.746,0l0,-38.127Zm93.849,0l3.746,0l0,34.381l57.715,0l0,3.746l-61.461,0l0,-38.127Zm139.662,0l4.082,0l14.272,38.127l-4.093,0l-11.308,-30.176l-49.46,0l-11.238,30.176l-4.093,0l14.271,-38.127l4.018,0l-1.571,4.205l46.686,0l-1.566,-4.205Zm42.763,0l3.746,0l0,38.127l-3.746,0l0,-38.127Zm69.578,37.155l0,0.972l-3.954,0l-23.683,-38.127l4.438,0l23.199,37.155Zm48.889,-37.155l4.593,0l-23.453,34.381l66.733,0l0,3.746l-71.867,0l0,-3.053l23.994,-35.074Zm90.697,38.127l-1.873,0l0,-37.529l1.873,0l0,37.529Zm15.604,-18.037c0,3.122 0.618,5.984 1.855,8.585c1.237,2.601 2.96,4.63 5.168,6.087c2.209,1.457 4.735,2.185 7.579,2.185c4.278,0 7.764,-1.607 10.457,-4.821c2.694,-3.214 4.041,-7.353 4.041,-12.417l0,-1.075c0,-3.076 -0.624,-5.92 -1.873,-8.533c-1.248,-2.613 -2.977,-4.653 -5.185,-6.122c-2.208,-1.468 -4.711,-2.202 -7.509,-2.202c-4.278,0 -7.77,1.63 -10.475,4.89c-2.706,3.261 -4.058,7.365 -4.058,12.314l0,1.109Zm-567.983,-32.84c-7.363,-2.143 -12.991,-4.309 -16.884,-6.492c-4.37,-2.451 -7.573,-5.295 -9.608,-8.533c-2.034,-3.237 -3.052,-7.168 -3.052,-11.792c0,-7.354 3.099,-13.308 9.296,-17.863c6.197,-4.555 14.267,-6.833 24.21,-6.833c6.474,0 12.29,1.26 17.446,3.781c5.157,2.52 9.145,6.058 11.966,10.613c2.82,4.553 4.23,9.694 4.232,15.435l-3.746,0c0,-7.538 -2.775,-13.77 -8.324,-18.695c-5.55,-4.925 -12.741,-7.388 -21.574,-7.388c-8.88,0 -16.059,1.977 -21.54,5.931c-5.48,3.954 -8.22,8.914 -8.22,14.88c0,6.058 2.382,10.937 7.145,14.637c4.764,3.7 12.625,6.971 23.586,9.816c3.074,0.797 5.918,1.631 8.53,2.503l-13.463,0Zm66.941,0l0,-50.126l31.563,0c10.313,0 18.325,2.602 24.037,7.804c5.711,5.203 8.567,12.429 8.567,21.678c0,8.807 -2.577,15.689 -7.734,20.644l-6.484,0c1.022,-0.637 1.981,-1.345 2.876,-2.122c5.064,-4.393 7.596,-10.521 7.596,-18.383c0,-8.139 -2.532,-14.486 -7.596,-19.042c-5.063,-4.554 -12.148,-6.832 -21.262,-6.833l-27.817,0l0,46.38l-3.746,0Zm155.31,-46.38l-57.715,0l0,43.426l50.64,0l0,2.954l-54.386,0l0,-50.126l61.461,0l0,3.746Zm77.511,46.38l-4.06,0l-16.992,-45.617l-17.043,45.617l-4.009,0l18.763,-50.126l4.578,0l18.763,50.126Zm43.453,0l0,-50.126l32.188,0c10.128,0 18.186,2.613 24.175,7.839c5.989,5.226 8.984,12.325 8.984,21.297c0,6.89 -2.139,12.914 -6.417,18.07c-0.878,1.058 -1.805,2.034 -2.781,2.92l-5.709,0c1.424,-0.895 2.752,-1.951 3.981,-3.162c4.786,-4.717 7.18,-10.66 7.18,-17.828c0,-7.862 -2.648,-14.059 -7.943,-18.591c-5.294,-4.531 -12.541,-6.798 -21.748,-6.799l-28.164,0l0,46.38l-3.746,0Zm127.189,0l31.729,-46.38l-61.67,0l0,-3.746l66.873,0l0,2.686l-32.363,47.44l-4.569,0Z" style="fill:#fff;"/><path d="M0,58.488l0,-2.7l574.65,0l0,-5.4l8.1,6.75l-8.1,6.75l0,-5.4l-574.65,0Z" style="fill:#fff;"/></g></svg>