<?xml version="1.0" encoding="UTF-8" standalone="no"?><!DOCTYPE svg PUBLIC "-//W3C//DTD SVG 1.1//EN" "http://www.w3.org/Graphics/SVG/1.1/DTD/svg11.dtd"><svg width="100%" height="100%" viewBox="0 0 831 156" version="1.1" xmlns="http://www.w3.org/2000/svg" xmlns:xlink="http://www.w3.org/1999/xlink" xml:space="preserve" xmlns:serif="http://www.serif.com/" style="fill-rule:evenodd;clip-rule:evenodd;stroke-linejoin:round;stroke-miterlimit:1.41421;"><g><path d="M0.525,83.185l0,-6.981l728.364,0l-3.703,-8.144l20.793,11.635l-20.793,11.634l3.703,-8.144l-728.364,0Z" style="fill:url(#_Linear1);"/><path d="M722.902,139.283c5.957,0 8.936,1.729 8.936,5.187c0,2.252 -0.223,4.243 -0.667,5.972c-0.445,1.729 -1.556,2.916 -3.334,3.559c-0.445,0.161 -1.112,0.342 -2.001,0.543c-0.889,0.201 -1.822,0.362 -2.8,0.482c-0.978,0.121 -1.89,0.202 -2.734,0.242c-0.845,0.04 -1.4,-0.02 -1.667,-0.181c-1.245,-0.724 -2.201,-1.689 -2.867,-2.896c-0.667,-1.206 -1.001,-2.372 -1.001,-3.498c0,-2.654 0.512,-4.886 1.534,-6.696c1.022,-1.809 3.223,-2.714 6.601,-2.714Zm-281.959,-50.981c3.945,9.396 8.06,19.292 12.347,29.689c1.422,3.144 2.449,6.646 3.081,10.506c0.632,3.859 0.909,7.468 0.83,10.827c-0.079,3.359 -0.553,6.182 -1.422,8.469c-0.869,2.288 -2.094,3.431 -3.674,3.431c-0.948,0 -2.133,-0.858 -3.555,-2.573c-1.422,-1.715 -2.805,-3.716 -4.148,-6.003c-1.343,-2.287 -2.568,-4.539 -3.674,-6.754c-1.106,-2.216 -1.896,-3.824 -2.37,-4.824l-15.406,-33.663c-4.425,1.287 -9.876,2.466 -16.354,3.538c-6.479,1.072 -14.221,1.465 -23.228,1.179c-0.474,2.001 -1.462,5.11 -2.963,9.327c-1.501,4.217 -3.16,8.576 -4.977,13.079c-1.817,4.503 -3.595,8.719 -5.333,12.65c-1.738,3.931 -3.16,6.54 -4.266,7.826c-1.265,1.43 -2.766,2.68 -4.504,3.752c-1.738,1.072 -4.187,1.751 -7.347,2.037c-0.632,0 -1.62,-0.036 -2.963,-0.107c-1.343,-0.071 -2.726,-0.214 -4.148,-0.429c-1.422,-0.214 -2.647,-0.572 -3.674,-1.072c-1.027,-0.5 -1.54,-1.108 -1.54,-1.822c0,-0.715 0.79,-1.43 2.37,-2.144c1.58,-0.715 2.686,-1.358 3.318,-1.93c1.58,-2.573 3.239,-5.753 4.978,-9.541c1.738,-3.788 3.436,-7.683 5.095,-11.686c1.66,-4.002 3.2,-7.933 4.622,-11.792c1.422,-3.86 2.607,-7.219 3.556,-10.077c-0.791,0 -1.739,-0.143 -2.845,-0.429c-1.106,-0.286 -2.291,-0.608 -3.555,-0.965c-1.264,-0.357 -2.489,-0.786 -3.674,-1.287c-1.185,-0.5 -2.093,-1.036 -2.725,-1.608c-1.265,-1.143 -2.331,-2.537 -3.2,-4.181c-0.657,-1.243 -0.976,-2.384 -0.955,-3.423l92.303,0Zm-172.016,0c0.008,6.618 -0.359,13.263 -1.103,19.933c-0.869,7.79 -1.936,14.044 -3.2,18.761c2.528,0.286 6.557,0.572 12.088,0.857c5.53,0.286 12.562,0.429 21.094,0.429c7.901,0 14.933,-0.393 21.095,-1.179c6.162,-0.786 11.772,-1.608 16.828,-2.466c0.948,0.858 1.383,2.001 1.304,3.431c-0.079,1.429 -0.435,2.894 -1.067,4.395c-0.632,1.501 -1.422,2.859 -2.37,4.074c-0.948,1.215 -1.817,2.037 -2.607,2.466c-2.212,1.143 -6.558,2.465 -13.036,3.966c-6.479,1.501 -14.142,2.395 -22.991,2.68c-3.16,0.143 -6.518,0.179 -10.073,0.108c-3.555,-0.072 -6.992,-0.215 -10.31,-0.429c-3.319,-0.215 -6.36,-0.501 -9.126,-0.858c-2.765,-0.357 -4.858,-0.679 -6.28,-0.965c-0.633,0.858 -1.502,1.716 -2.608,2.573c-1.106,0.858 -2.33,1.608 -3.673,2.252c-1.344,0.643 -2.766,1.107 -4.267,1.393c-1.501,0.286 -2.883,0.215 -4.148,-0.214c-1.106,-0.429 -1.777,-1.144 -2.014,-2.144c-0.237,-1.001 -0.277,-2.18 -0.119,-3.538c0.158,-1.358 0.435,-2.823 0.83,-4.395c0.395,-1.573 0.75,-3.145 1.066,-4.717c1.423,-9.577 2.331,-19.154 2.726,-28.731c0.247,-5.978 0.416,-11.871 0.509,-17.682l21.452,0Zm482.515,9.601c0,-0.482 -0.067,-0.784 -0.2,-0.904c-0.134,-0.121 -0.289,-0.222 -0.467,-0.302c-0.889,-0.241 -1.956,-0.503 -3.201,-0.784c-1.245,-0.282 -2.178,-0.543 -2.8,-0.784c-0.889,-0.403 -1.645,-0.986 -2.268,-1.75c-0.622,-0.764 -0.933,-1.548 -0.933,-2.352c0,-0.563 0.489,-1.066 1.467,-1.508c0.978,-0.443 1.778,-0.744 2.4,-0.905c2.223,-0.643 4.268,-1.126 6.135,-1.448c1.867,-0.321 3.867,-0.442 6.001,-0.362c1.067,0 1.934,0.201 2.601,0.604c0.667,0.402 1.156,0.864 1.467,1.387c0.311,0.523 0.533,1.046 0.667,1.568c0.133,0.523 0.2,0.945 0.2,1.267l0,37.037c0,1.93 -0.223,4.041 -0.667,6.333c-0.445,2.292 -1,4.424 -1.667,6.394c-0.667,1.971 -1.467,3.599 -2.401,4.886c-0.933,1.287 -1.845,1.93 -2.734,1.93c-0.8,0 -1.422,-0.744 -1.867,-2.232c-0.444,-1.487 -0.8,-3.277 -1.067,-5.368c-0.266,-2.091 -0.444,-4.222 -0.533,-6.394c-0.089,-2.172 -0.133,-3.981 -0.133,-5.429l0,-30.884Zm-748.249,-55.599c0,-6.146 1.225,-11.685 3.674,-16.617c2.449,-4.931 5.886,-9.041 10.31,-12.328c4.425,-3.288 9.639,-5.754 15.644,-7.397c6.004,-1.644 12.562,-2.395 19.672,-2.252c7.427,0.286 14.063,1.537 19.91,3.752c5.846,2.216 10.428,4.753 13.747,7.612c1.106,0.858 2.33,2.073 3.673,3.645c1.343,1.572 2.45,3.216 3.319,4.931c0.869,1.716 1.343,3.359 1.422,4.932c0.079,1.572 -0.593,2.787 -2.015,3.645c-0.948,0.714 -2.173,1.072 -3.674,1.072c-1.501,0 -3.041,-0.179 -4.622,-0.536c-1.58,-0.358 -3.081,-0.858 -4.503,-1.501c-1.422,-0.643 -2.528,-1.251 -3.318,-1.823c-3.318,-2.43 -7.229,-4.395 -11.733,-5.896c-4.503,-1.501 -8.572,-2.323 -12.206,-2.466c-4.74,-0.142 -8.928,0.251 -12.562,1.18c-3.634,0.929 -6.676,2.251 -9.125,3.966c-2.449,1.716 -4.306,3.681 -5.57,5.897c-1.264,2.215 -1.896,4.466 -1.896,6.753c0,4.003 1.738,7.469 5.214,10.399c3.477,2.931 7.269,5.253 11.377,6.969c4.424,1.715 9.046,3.466 13.866,5.253c4.819,1.786 9.599,3.752 14.339,5.896c4.741,2.144 9.244,4.503 13.51,7.075c4.267,2.573 8.019,5.539 11.259,8.898c3.239,3.36 5.807,7.219 7.703,11.579c1.896,4.359 2.844,9.326 2.844,14.901c0,4.574 -1.106,9.041 -3.318,13.401c-2.213,4.359 -5.373,8.326 -9.481,11.899c-4.108,3.574 -9.125,6.504 -15.051,8.791c-5.925,2.287 -12.601,3.502 -20.028,3.645c-5.53,0.143 -11.298,-0.357 -17.302,-1.501c-6.004,-1.143 -11.535,-3.002 -16.591,-5.574c-5.057,-2.573 -9.441,-5.897 -13.155,-9.97c-3.713,-4.074 -6.044,-9.041 -6.992,-14.902c-0.316,-2.144 -0.237,-4.145 0.237,-6.003c0.474,-1.859 1.185,-3.467 2.133,-4.825c0.948,-1.358 2.015,-2.43 3.2,-3.216c1.185,-0.786 2.331,-1.179 3.437,-1.179c1.106,0 2.212,0.536 3.318,1.608c1.106,1.072 2.054,2.287 2.844,3.645c0.79,1.358 1.462,2.68 2.015,3.967c0.553,1.286 0.988,2.215 1.304,2.787c1.58,3.288 3.713,6.075 6.399,8.362c2.686,2.287 5.57,4.145 8.651,5.575c3.081,1.429 6.281,2.465 9.599,3.108c3.319,0.644 6.321,0.894 9.007,0.751c3.634,-0.143 7.111,-0.715 10.429,-1.715c3.318,-1.001 6.241,-2.395 8.77,-4.181c2.528,-1.787 4.542,-4.003 6.044,-6.647c1.501,-2.644 2.251,-5.61 2.251,-8.898c0,-3.574 -1.54,-7.111 -4.622,-10.613c-3.081,-3.502 -6.952,-6.754 -11.614,-9.756c-4.661,-3.002 -9.796,-5.753 -15.406,-8.255c-5.609,-2.501 -10.942,-4.609 -15.998,-6.325c-8.849,-3.144 -16.118,-7.468 -21.806,-12.972c-5.688,-5.503 -8.533,-11.685 -8.533,-18.546Zm542.985,45.998c2.153,9.31 6.032,17.74 11.637,25.293c7.584,10.22 17.539,18.761 29.864,25.622c2.054,1.287 3.16,2.609 3.318,3.967c0.158,1.358 -0.395,2.322 -1.659,2.894c-1.106,0.572 -3.515,1.001 -7.229,1.287c-3.713,0.286 -7.703,-0.143 -11.969,-1.287c-7.427,-2.144 -13.747,-5.682 -18.962,-10.613c-5.214,-4.931 -9.599,-10.506 -13.154,-16.724c-3.555,-6.218 -6.321,-12.65 -8.296,-19.297c-1.158,-3.898 -2.113,-7.612 -2.863,-11.142l19.313,0Zm225.935,30.351c0,-3.78 0.778,-7.399 2.333,-10.857c1.556,-3.459 3.757,-6.515 6.602,-9.169c2.845,-2.654 6.223,-4.765 10.135,-6.333c3.912,-1.569 8.224,-2.353 12.936,-2.353c3.912,0 7.491,0.764 10.736,2.292c3.245,1.528 6.023,3.579 8.335,6.153c2.311,2.574 4.112,5.509 5.401,8.807c1.289,3.297 1.934,6.715 1.934,10.254c0,3.619 -0.734,7.218 -2.201,10.797c-1.467,3.579 -3.534,6.756 -6.201,9.531c-2.667,2.775 -5.868,5.027 -9.602,6.756c-3.734,1.729 -7.868,2.594 -12.403,2.594c-4.267,0 -8.135,-0.704 -11.602,-2.112c-3.467,-1.407 -6.424,-3.378 -8.868,-5.911c-2.445,-2.534 -4.313,-5.55 -5.602,-9.048c-1.289,-3.499 -1.933,-7.299 -1.933,-11.401Zm-269.113,-30.351c-0.058,2.845 -0.155,5.665 -0.292,8.462c-0.237,4.86 -0.671,9.791 -1.303,14.794c-0.158,1.287 -0.632,3.824 -1.422,7.612c-0.79,3.788 -1.857,7.754 -3.2,11.9c-1.343,4.145 -3.002,7.826 -4.978,11.042c-1.975,3.216 -4.226,4.824 -6.755,4.824c-0.316,0 -0.948,-0.179 -1.896,-0.536c-0.948,-0.358 -1.896,-0.894 -2.844,-1.608c-0.948,-0.715 -1.738,-1.573 -2.37,-2.573c-0.632,-1.001 -0.711,-2.144 -0.237,-3.431c0.474,-1.286 0.869,-3.287 1.185,-6.003c0.316,-2.716 0.593,-5.861 0.83,-9.434c0.237,-3.574 0.434,-7.433 0.592,-11.578c0.158,-4.146 0.237,-8.362 0.237,-12.65l0,-10.821l22.453,0Zm-355.904,0c-0.047,0.965 -0.097,1.928 -0.151,2.887c-0.395,7.004 -0.83,13.723 -1.304,20.155c-0.158,3.002 -0.672,6.539 -1.541,10.613c-0.869,4.074 -2.054,7.933 -3.555,11.578c-1.501,3.645 -3.16,6.754 -4.977,9.327c-1.817,2.573 -3.753,3.859 -5.807,3.859c-0.316,0 -0.83,-0.142 -1.541,-0.428c-0.711,-0.286 -1.461,-0.751 -2.251,-1.394c-0.791,-0.643 -1.541,-1.465 -2.252,-2.466c-0.711,-1 -1.146,-2.144 -1.304,-3.43c0.632,-2.573 1.343,-6.611 2.133,-12.114c0.791,-5.504 1.265,-11.185 1.423,-17.046c0.158,-5.432 0.276,-11.507 0.355,-18.225c0.013,-1.095 0.024,-2.2 0.032,-3.316l20.74,0Zm504.977,0c-2.59,4.022 -5.173,8.022 -7.747,12c-5.688,8.791 -10.981,17.117 -15.88,24.978c5.531,0.143 10.824,0.179 15.88,0.108c5.057,-0.072 9.955,-0.215 14.695,-0.429c4.741,-0.215 9.442,-0.393 14.103,-0.536c4.661,-0.143 9.441,-0.286 14.34,-0.429c0.632,0 1.935,-0.036 3.91,-0.107c1.976,-0.072 3.99,-0.072 6.044,0c2.055,0.071 3.872,0.321 5.452,0.75c1.58,0.429 2.37,1.072 2.37,1.93c0,1.715 -0.869,3.538 -2.607,5.467c-1.738,1.93 -3.793,3.717 -6.163,5.361c-2.37,1.643 -4.859,2.966 -7.466,3.966c-2.607,1.001 -4.78,1.501 -6.518,1.501c-5.53,0 -10.824,-0.071 -15.88,-0.214c-5.056,-0.143 -10.192,-0.322 -15.406,-0.536c-5.214,-0.215 -10.547,-0.393 -15.999,-0.536c-5.451,-0.143 -11.337,-0.358 -17.658,-0.644c-2.37,0 -4.819,-0.393 -7.347,-1.179c-2.528,-0.786 -4.899,-1.787 -7.111,-3.002c-2.212,-1.215 -4.029,-2.644 -5.451,-4.288c-1.422,-1.644 -2.133,-3.466 -2.133,-5.467c0,-1.144 0.987,-1.787 2.962,-1.93c1.976,-0.143 4.464,-0.357 7.467,-0.643c4.898,-7.576 9.954,-15.688 15.169,-24.336c2.355,-3.906 4.694,-7.834 7.018,-11.785l23.956,0Zm151.78,12.014c-2.934,0 -5.646,0.503 -8.135,1.508c-2.49,1.005 -4.668,2.373 -6.535,4.102c-1.867,1.729 -3.312,3.74 -4.334,6.032c-1.023,2.292 -1.534,4.685 -1.534,7.178c0,2.091 0.422,4.162 1.267,6.213c0.844,2.051 2.022,3.921 3.534,5.61c1.511,1.689 3.356,3.056 5.534,4.101c2.179,1.046 4.557,1.569 7.135,1.569c2.579,0 5.046,-0.583 7.402,-1.749c2.356,-1.167 4.401,-2.675 6.134,-4.524c1.734,-1.85 3.112,-3.961 4.135,-6.334c1.022,-2.373 1.533,-4.765 1.533,-7.178c0,-1.93 -0.378,-3.861 -1.133,-5.791c-0.756,-1.93 -1.823,-3.7 -3.201,-5.308c-1.378,-1.609 -3.067,-2.916 -5.068,-3.921c-2,-1.005 -4.245,-1.508 -6.734,-1.508Zm-677.521,-29.229c-0.002,-0.267 -0.005,-0.534 -0.008,-0.803c-0.079,-7.504 -0.197,-15.33 -0.355,-23.477c-0.158,-8.148 -0.395,-16.295 -0.712,-24.443c0,-1.001 -0.75,-1.93 -2.251,-2.787c-1.501,-0.858 -3.121,-1.93 -4.859,-3.217c-1.738,-1.286 -3.358,-2.823 -4.859,-4.609c-1.501,-1.787 -2.252,-4.11 -2.252,-6.969c0,-1.286 0.237,-2.215 0.711,-2.787c0.475,-0.572 1.028,-1.001 1.66,-1.286c0.632,-0.286 1.264,-0.429 1.896,-0.429c0.632,0 1.185,0 1.659,0c2.528,0 5.254,0.321 8.177,0.965c2.923,0.643 5.688,1.5 8.296,2.573c2.607,1.072 4.977,2.251 7.11,3.537c2.133,1.287 3.674,2.573 4.622,3.86c3.634,-2.001 8.098,-3.395 13.391,-4.181c5.294,-0.786 10.39,-1.18 15.288,-1.18c6.637,0 12.918,0.858 18.843,2.573c5.925,1.716 11.179,4.431 15.762,8.148c5.214,4.288 8.888,9.577 11.021,15.866c2.133,6.29 3.2,12.436 3.2,18.439c0,6.433 -1.975,11.9 -5.926,16.403c-1.176,1.341 -2.44,2.609 -3.792,3.804l-34.282,0c3.467,-1.357 6.678,-2.947 9.632,-4.769c3.476,-2.144 6.4,-4.646 8.77,-7.504c2.37,-2.859 3.555,-6.29 3.555,-10.292c0,-2.573 -0.632,-5.503 -1.896,-8.791c-1.264,-3.287 -3.16,-6.396 -5.688,-9.327c-2.529,-2.93 -5.649,-5.431 -9.363,-7.504c-3.713,-2.073 -7.94,-3.109 -12.68,-3.109c-4.108,0 -8.138,0.5 -12.088,1.501c-3.95,1 -7.901,2.644 -11.851,4.931c0,6.147 0.079,13.115 0.237,20.905c0.158,7.79 0.237,15.331 0.237,22.62c0,0.447 -0.001,0.893 -0.002,1.339l-21.203,0Zm121.197,0c-0.059,-6.753 -0.207,-13.346 -0.444,-19.778c-0.316,-8.576 -0.553,-16.724 -0.711,-24.442c-3.319,-1.144 -6.242,-2.609 -8.77,-4.396c-2.528,-1.787 -4.345,-4.038 -5.451,-6.754c-0.317,-0.857 -0.238,-1.715 0.237,-2.573c0.474,-0.857 1.145,-1.608 2.014,-2.251c0.869,-0.643 1.778,-1.143 2.726,-1.501c0.948,-0.357 1.659,-0.464 2.133,-0.321c5.688,2.144 12.088,3.216 19.198,3.216c11.061,-0.143 21.372,-0.679 30.931,-1.608c9.56,-0.929 19.633,-1.823 30.22,-2.68c1.106,-0.143 2.489,-0.108 4.148,0.107c1.659,0.214 3.239,0.536 4.74,0.965c1.501,0.428 2.765,0.964 3.793,1.608c1.027,0.643 1.54,1.393 1.54,2.251c0,1.143 -0.474,2.43 -1.422,3.859c-0.948,1.43 -2.133,2.823 -3.555,4.181c-1.422,1.358 -3.042,2.573 -4.859,3.645c-1.817,1.072 -3.516,1.751 -5.096,2.037c-8.533,0.715 -16.71,1.179 -24.531,1.394c-7.822,0.214 -16.315,0.321 -25.48,0.321l0.474,40.309c7.901,-0.571 15.604,-1.072 23.11,-1.5c7.505,-0.429 15.05,-0.715 22.635,-0.858c4.424,-0.143 7.742,0.322 9.954,1.394c2.213,1.072 3.398,1.965 3.556,2.68c0.03,0.221 0.045,0.453 0.043,0.695l-81.133,0Zm127.851,0l9.649,-27.711c0.948,-3.288 2.41,-6.218 4.385,-8.791c1.975,-2.573 4.069,-4.359 6.281,-5.36l4.266,-2.358c-0.948,-0.572 -2.054,-1.287 -3.318,-2.145c-1.264,-0.857 -2.568,-1.822 -3.911,-2.894c-1.343,-1.072 -2.489,-2.144 -3.437,-3.216c-0.948,-1.072 -1.501,-2.109 -1.659,-3.109c-0.316,-1.144 -0.316,-2.68 0,-4.61c0.316,-1.93 1.185,-2.894 2.607,-2.894c0.79,0 1.699,0.142 2.726,0.428c1.027,0.286 1.936,0.572 2.726,0.858c1.896,0.572 3.911,1.394 6.044,2.466c2.133,1.072 4.148,2.18 6.044,3.323c2.528,1.858 4.74,4.931 6.636,9.22c5.689,14.437 11.733,29.159 18.132,44.168c0.371,0.87 0.744,1.745 1.118,2.625l-20.646,0c-0.823,-2.309 -1.582,-4.435 -2.278,-6.377c-1.817,-5.075 -3.318,-9.148 -4.503,-12.222c-1.185,-3.073 -2.054,-5.36 -2.607,-6.861c-0.553,-1.5 -0.988,-2.537 -1.304,-3.109l-0.237,-0.857c-0.948,2.859 -2.014,6.218 -3.2,10.077c-1.185,3.859 -2.409,7.862 -3.673,12.007c-0.754,2.473 -1.494,4.92 -2.22,7.342l-17.621,0Zm105.167,0l0,-49.366c0,-1.573 -0.829,-2.931 -2.489,-4.074c-1.659,-1.144 -3.91,-2.001 -6.755,-2.573c-1.106,-0.286 -2.488,-0.572 -4.147,-0.858c-1.66,-0.285 -2.568,-0.929 -2.726,-1.929c0,-0.715 0.276,-1.465 0.829,-2.252c0.554,-0.786 1.225,-1.536 2.015,-2.251c0.79,-0.715 1.659,-1.322 2.607,-1.822c0.948,-0.501 1.738,-0.822 2.37,-0.965c6.479,-1.573 12.246,-1.608 17.303,-0.107c5.056,1.5 8.295,3.68 9.718,6.539c4.108,-2.43 9.322,-4.574 15.643,-6.432c6.32,-1.858 13.036,-2.788 20.146,-2.788c7.427,0 13.984,1.18 19.673,3.538c5.688,2.359 10.468,5.503 14.339,9.434c3.872,3.931 6.795,8.398 8.77,13.401c1.975,5.003 2.963,10.149 2.963,15.437c0,3.002 -0.553,6.218 -1.659,9.649c-1.107,3.43 -3.003,6.718 -5.689,9.863c-2.336,2.735 -5.42,5.254 -9.25,7.556l-83.661,0Zm157.517,0c4.514,-7.922 8.932,-15.73 13.254,-23.423c4.82,-8.576 9.284,-16.509 13.392,-23.799c-3.16,0.286 -6.874,0.679 -11.14,1.179c-4.266,0.5 -8.612,1.001 -13.036,1.501c-4.424,0.5 -8.73,0.965 -12.917,1.394c-4.188,0.428 -7.861,0.714 -11.022,0.857c-1.58,-0.429 -3.357,-1.25 -5.333,-2.465c-1.975,-1.215 -3.792,-2.609 -5.451,-4.181c-1.659,-1.573 -3.081,-3.145 -4.266,-4.717c-1.185,-1.573 -1.778,-2.788 -1.778,-3.645c0,-1.716 2.37,-2.752 7.111,-3.109c4.74,-0.358 12.325,-0.751 22.753,-1.18c3.951,-0.143 8.493,-0.321 13.629,-0.536c5.135,-0.214 10.429,-0.428 15.88,-0.643c5.451,-0.214 10.863,-0.464 16.236,-0.75c5.372,-0.286 10.191,-0.572 14.458,-0.858c0.79,0 1.896,0.25 3.318,0.75c1.422,0.501 2.844,1.18 4.266,2.037c1.422,0.858 2.647,1.823 3.674,2.895c1.027,1.072 1.541,2.108 1.541,3.109c0,1.143 -0.751,2.108 -2.252,2.894c-1.501,0.787 -3.595,1.608 -6.281,2.466c-4.74,8.148 -9.915,16.724 -15.525,25.729c-5.086,8.165 -10.237,16.33 -15.452,24.495l-25.059,0Zm-135,-0.052c4.582,-0.572 9.994,-1.287 16.236,-2.144c6.241,-0.858 12.206,-2.251 17.894,-4.181c5.689,-1.93 10.508,-4.61 14.458,-8.041c3.951,-3.43 5.926,-8.076 5.926,-13.936c0,-1.858 -0.474,-4.217 -1.422,-7.076c-0.948,-2.858 -2.607,-5.574 -4.978,-8.147c-2.37,-2.573 -5.53,-4.789 -9.48,-6.647c-3.951,-1.858 -8.928,-2.787 -14.932,-2.787c-4.109,0 -8.099,0.464 -11.97,1.393c-3.871,0.93 -8.019,2.609 -12.443,5.039c0,10.578 0.118,19.404 0.355,26.48c0.237,7.075 0.356,13.758 0.356,20.047Z" style="fill:url(#_Linear2);fill-rule:nonzero;"/><path d="M701.084,69.787l23.103,-1.727l0,3.455l-23.103,-1.728Z" style="fill:url(#_Linear3);"/><path d="M686.248,89.602l37.939,-1.727l0,3.454l-37.939,-1.727Z" style="fill:url(#_Linear4);"/></g><defs><linearGradient id="_Linear1" x1="0" y1="0" x2="1" y2="0" gradientUnits="userSpaceOnUse" gradientTransform="matrix(-745.454,9.12918e-14,-9.12918e-14,-745.454,745.979,79.6948)"><stop offset="0" style="stop-color:#fff;stop-opacity:0.698039"/><stop offset="0.78" style="stop-color:#fff;stop-opacity:0.698039"/><stop offset="0.88" style="stop-color:#fff;stop-opacity:0.4"/><stop offset="0.89" style="stop-color:#fff;stop-opacity:0"/><stop offset="0.92" style="stop-color:#fff;stop-opacity:0"/><stop offset="0.93" style="stop-color:#fff;stop-opacity:0.203922"/><stop offset="1" style="stop-color:#fff;stop-opacity:0"/></linearGradient><linearGradient id="_Linear2" x1="0" y1="0" x2="1" y2="0" gradientUnits="userSpaceOnUse" gradientTransform="matrix(-0.409944,155,-155,-0.409944,415.935,0.279781)"><stop offset="0" style="stop-color:#fff;stop-opacity:1"/><stop offset="0.52" style="stop-color:#fff;stop-opacity:0.698039"/><stop offset="1" style="stop-color:#fff;stop-opacity:0.0980392"/></linearGradient><linearGradient id="_Linear3" x1="0" y1="0" x2="1" y2="0" gradientUnits="userSpaceOnUse" gradientTransform="matrix(12.4574,9.86076e-32,-7.88861e-31,12.4574,711.729,69.7875)"><stop offset="0" style="stop-color:#fff;stop-opacity:1"/><stop offset="1" style="stop-color:#fff;stop-opacity:0"/></linearGradient><linearGradient id="_Linear4" x1="0" y1="0" x2="1" y2="0" gradientUnits="userSpaceOnUse" gradientTransform="matrix(20.4574,4.99898e-16,4.92221e-16,12.4574,703.729,89.6021)"><stop offset="0" style="stop-color:#fff;stop-opacity:1"/><stop offset="1" style="stop-color:#fff;stop-opacity:0"/></linearGradient></defs></svg>