<?xml version="1.0" encoding="UTF-8" standalone="no"?><!DOCTYPE svg PUBLIC "-//W3C//DTD SVG 1.1//EN" "http://www.w3.org/Graphics/SVG/1.1/DTD/svg11.dtd"><svg width="100%" height="100%" viewBox="0 0 851 201" version="1.1" xmlns="http://www.w3.org/2000/svg" xmlns:xlink="http://www.w3.org/1999/xlink" xml:space="preserve" xmlns:serif="http://www.serif.com/" style="fill-rule:evenodd;clip-rule:evenodd;stroke-linejoin:round;stroke-miterlimit:1.41421;"><path d="M840.645,156.26c0,0 17.943,44.127 0,44.127c-138.382,0 -830.29,-45.875 -830.29,-45.875l830.29,1.748Zm0,-99.692c-138.382,-17.187 -830.29,-7.747 -830.29,-7.747c0,0 -22.174,92.588 0,95.342c138.382,17.187 830.29,7.779 830.29,7.779c0,0 22.174,-92.62 0,-95.374Zm-832.17,-12.102c0,0 -17.943,-44.079 0,-44.079c138.381,0 830.289,45.847 830.289,45.847l-830.289,-1.768Z" style="fill:#020000;fill-opacity:0.2;"/></svg>